<?xml version="1.0" encoding="utf-8"?>
<!-- Generator: Adobe Illustrator 23.0.1, SVG Export Plug-In . SVG Version: 6.00 Build 0)  -->
<svg version="1.1" id="Layer_1" xmlns="http://www.w3.org/2000/svg" xmlns:xlink="http://www.w3.org/1999/xlink" x="0px" y="0px"
	 viewBox="0 0 48 48" style="enable-background:new 0 0 48 48;" xml:space="preserve">
<style type="text/css">
	.st0{fill:none;}
</style>
<g>
	<rect x="22" y="32" class="st0" width="6" height="4"/>
	<rect x="14" y="16" class="st0" width="4" height="4"/>
	<rect x="14" y="32" class="st0" width="4" height="4"/>
	<rect x="14" y="24" class="st0" width="4" height="4"/>
	<rect x="22" y="24" class="st0" width="10" height="4"/>
	<rect x="22" y="16" class="st0" width="12" height="4"/>
	<path d="M32.8,4H12.1C9.8,4,8,5.8,8,8.1v31.8c0,2.3,1.8,4.1,4.1,4.1h23.8c2.3,0,4.1-1.8,4.1-4.1V11.2L32.8,4z M18,36h-4v-4h4V36z
		 M18,28h-4v-4h4V28z M18,20h-4v-4h4V20z M28,36h-6v-4h6V36z M32,28H22v-4h10V28z M34,20H22v-4h12V20z"/>
</g>
</svg>
