<?xml version="1.0" encoding="utf-8"?>
<!-- Generator: Adobe Illustrator 23.0.1, SVG Export Plug-In . SVG Version: 6.00 Build 0)  -->
<svg version="1.1" id="Layer_1" xmlns="http://www.w3.org/2000/svg" xmlns:xlink="http://www.w3.org/1999/xlink" x="0px" y="0px"
	 viewBox="0 0 48 48" style="enable-background:new 0 0 48 48;" xml:space="preserve">
<style type="text/css">
	.st0{fill:none;}
</style>
<g>
	<circle class="st0" cx="24" cy="28.9" r="1.5"/>
	<circle class="st0" cx="19.1" cy="24" r="1.5"/>
	<circle class="st0" cx="24" cy="19.1" r="1.5"/>
	<circle class="st0" cx="28.9" cy="24" r="1.5"/>
	<path d="M19.8,8.4c-3.1-3.1-8.2-3.1-11.3,0s-3.1,8.2,0,11.3l19.8,19.8c3.1,3.1,8.2,3.1,11.3,0s3.1-8.2,0-11.3L19.8,8.4z M20.1,25.1
		c-0.6,0.6-1.5,0.6-2.1,0c-0.6-0.6-0.6-1.5,0-2.1c0.6-0.6,1.5-0.6,2.1,0C20.7,23.5,20.7,24.5,20.1,25.1z M25.1,30
		c-0.6,0.6-1.5,0.6-2.1,0c-0.6-0.6-0.6-1.5,0-2.1c0.6-0.6,1.5-0.6,2.1,0C25.6,28.5,25.6,29.4,25.1,30z M25.1,20.1
		c-0.6,0.6-1.5,0.6-2.1,0c-0.6-0.6-0.6-1.5,0-2.1c0.6-0.6,1.5-0.6,2.1,0C25.6,18.6,25.6,19.5,25.1,20.1z M30,25.1
		c-0.6,0.6-1.5,0.6-2.1,0c-0.6-0.6-0.6-1.5,0-2.1c0.6-0.6,1.5-0.6,2.1,0C30.6,23.5,30.6,24.5,30,25.1z"/>
	<path d="M8.4,28.2c-3.1,3.1-3.1,8.2,0,11.3s8.2,3.1,11.3,0l2.1-2.1L10.6,26.1L8.4,28.2z"/>
	<path d="M39.6,19.8c3.1-3.1,3.1-8.2,0-11.3s-8.2-3.1-11.3,0l-2.1,2.1l11.3,11.3L39.6,19.8z"/>
</g>
</svg>
