<?xml version="1.0" encoding="utf-8"?>
<!-- Generator: Adobe Illustrator 23.0.1, SVG Export Plug-In . SVG Version: 6.00 Build 0)  -->
<svg version="1.1" id="Layer_1" xmlns="http://www.w3.org/2000/svg" xmlns:xlink="http://www.w3.org/1999/xlink" x="0px" y="0px"
	 viewBox="0 0 48 48" style="enable-background:new 0 0 48 48;" xml:space="preserve">
<path d="M41.8,23.4L37.8,12c-0.4-1.2-1.5-2-2.8-2h-5V6H18v4h-5c-1.3,0-2.4,0.8-2.8,2L6.2,23.4C6.1,23.8,6,24.2,6,24.7V39
	c0,1.7,1.3,3,3,3s3-1.3,3-3v-1h24v1c0,1.6,1.3,3,3,3c1.6,0,3-1.3,3-3V24.7C42,24.2,41.9,23.8,41.8,23.4z M13,32c-1.7,0-3-1.3-3-3
	s1.3-3,3-3s3,1.3,3,3S14.7,32,13,32z M35,32c-1.7,0-3-1.3-3-3s1.3-3,3-3s3,1.3,3,3S36.7,32,35,32z M10,22l2.5-7.6
	c0.3-0.8,1-1.4,1.9-1.4h19.1c0.9,0,1.6,0.6,1.9,1.4L38,22H10z"/>
</svg>
