<?xml version="1.0" encoding="utf-8"?>
<!-- Generator: Adobe Illustrator 23.0.1, SVG Export Plug-In . SVG Version: 6.00 Build 0)  -->
<svg version="1.1" id="Layer_1" xmlns="http://www.w3.org/2000/svg" xmlns:xlink="http://www.w3.org/1999/xlink" x="0px" y="0px"
	 viewBox="0 0 48 48" style="enable-background:new 0 0 48 48;" xml:space="preserve">
<path d="M40,36c2.2,0,4-1.8,4-4l0-22c0-2.2-1.8-4-4-4H8c-2.2,0-4,1.8-4,4v22c0,2.2,1.8,4,4,4H0v0c0,2.2,1.8,4,4,4h40
	c2.2,0,4-1.8,4-4v0H40z M8,10h32v22H8V10z"/>
<path d="M17.3,22.1v2.7c0,0.7,0.4,1.3,1,1.7l4.8,2.6c0.6,0.3,1.3,0.3,1.8,0l4.8-2.6c0.6-0.3,1-1,1-1.7v-2.7l-5.8,3.2
	c-0.6,0.3-1.3,0.3-1.8,0L17.3,22.1z M23.1,12.9L15,17.3c-0.7,0.4-0.7,1.3,0,1.7l8.1,4.4c0.6,0.3,1.3,0.3,1.8,0l7.7-4.2v5.7
	c0,0.5,0.4,1,1,1s1-0.4,1-1v-6.1c0-0.4-0.2-0.7-0.5-0.8l-9.1-5C24.4,12.6,23.7,12.6,23.1,12.9z"/>
</svg>
