<?xml version="1.0" encoding="utf-8"?>
<!-- Generator: Adobe Illustrator 23.0.1, SVG Export Plug-In . SVG Version: 6.00 Build 0)  -->
<svg version="1.1" id="Layer_1" xmlns="http://www.w3.org/2000/svg" xmlns:xlink="http://www.w3.org/1999/xlink" x="0px" y="0px"
	 viewBox="0 0 48 48" style="enable-background:new 0 0 48 48;" xml:space="preserve">
<g>
	<g>
		<g>
			<path d="M23,17.4c-1,0-2,0.6-2.4,1.5l-4.2,8.3c0.7,0.3,1.4,0.5,2.2,0.5c2.1,0,3.9-1.2,4.9-3l0.9-1.8H27c0.7,0,1.4,0.3,1.9,0.8
				L39,33.8V17.4H23z"/>
		</g>
	</g>
	<g>
		<g>
			<path d="M27,25.6h-1l-0.1,0.2c-1.3,2.6-3.8,4.4-6.7,4.6c-2.1,0.2-3.6-0.4-5.3-1.2c-0.7-0.3-1-1.2-0.7-1.9l4.8-9.6
				c0.9-1.8,2.8-3,4.9-3h5.9c0.4-0.8,0.6-1.8,0.6-2.7c0-0.8-0.6-1.4-1.4-1.4H17.5c-1.5,0-3,0.9-3.7,2.3l-1.2,2.4
				c-0.2,0.5-0.7,0.8-1.2,0.8H9V36h6.3l3.9,3c1.1,1.1,2.7,1.5,4.1,1l11.6-3.7c0.7-0.2,1.3-0.6,1.8-1.1L27,25.6z"/>
		</g>
	</g>
</g>
<rect x="2" y="16" width="4" height="20"/>
<path d="M42,36h1.5c1.4,0,2.5-1.1,2.5-2.5V18.5c0-1.4-1.1-2.5-2.5-2.5H42V36z"/>
</svg>
