<?xml version="1.0" encoding="utf-8"?>
<!-- Generator: Adobe Illustrator 23.0.1, SVG Export Plug-In . SVG Version: 6.00 Build 0)  -->
<svg version="1.1" id="Layer_1" xmlns="http://www.w3.org/2000/svg" xmlns:xlink="http://www.w3.org/1999/xlink" x="0px" y="0px"
	 viewBox="0 0 48 48" style="enable-background:new 0 0 48 48;" xml:space="preserve">
<g>
	<rect x="4" y="40" width="40" height="4"/>
	<path d="M9,36.6c2.8,0,5-2.3,5-5c0-0.1,0-0.1,0-0.2l6.1-2.3c0.9,1.1,2.3,1.9,3.9,1.9c2.8,0,5-2.3,5-5c0-0.9-0.2-1.7-0.6-2.4
		l8.7-9.8c0.6,0.2,1.2,0.4,1.9,0.4c2.8,0,5-2.3,5-5c0-2.8-2.3-5-5-5c-2.8,0-5,2.3-5,5c0,1,0.3,2,0.8,2.8l-8.5,9.6
		c-0.7-0.3-1.4-0.5-2.2-0.5c-2.8,0-5,2.3-5,5c0,0.1,0,0.3,0,0.4l-6,2.3c-0.9-1.2-2.4-2-4-2c-2.8,0-5,2.3-5,5C4,34.4,6.3,36.6,9,36.6
		z"/>
</g>
</svg>
