<?xml version="1.0" encoding="utf-8"?>
<!-- Generator: Adobe Illustrator 23.0.1, SVG Export Plug-In . SVG Version: 6.00 Build 0)  -->
<svg version="1.1" id="Layer_1" xmlns="http://www.w3.org/2000/svg" xmlns:xlink="http://www.w3.org/1999/xlink" x="0px" y="0px"
	 viewBox="0 0 48 48" style="enable-background:new 0 0 48 48;" xml:space="preserve">
<style type="text/css">
	.st0{fill:none;}
	.st1{fill:#607D8B;}
</style>
<path class="st0" d="M27.9,43c-1.3,0.5-2.6,0.8-3.9,1C25.4,43.8,26.7,43.4,27.9,43z M24,44c-1.4-0.2-2.7-0.6-3.9-1
	C21.3,43.4,22.6,43.8,24,44z"/>
<path class="st1" d="M17.1,24c-2.1-1.4-4.5-2.5-7.1-3.2C12.6,21.5,15,22.6,17.1,24z M38,20.8c-2.6,0.7-5,1.8-7.1,3.3
	C33,22.6,35.4,21.5,38,20.8z"/>
<path d="M18,24.6c-0.3-0.2-0.6-0.4-0.9-0.6C17.4,24.2,17.7,24.4,18,24.6z M30.8,24.1c-0.3,0.2-0.5,0.3-0.8,0.5
	C30.3,24.4,30.6,24.2,30.8,24.1z M31,19.3c-0.4-5.6-2.6-11-6.9-15.3c-4.3,4.3-6.6,9.7-7.1,15.3c2.6,1.4,4.9,3.1,7,5.3
	C26.1,22.4,28.4,20.6,31,19.3z M24,30.9C19.7,24.3,12.4,20,4,20c0,10.6,6.7,19.6,16.1,23c1.3,0.5,2.6,0.8,3.9,1
	c1.4-0.2,2.7-0.6,3.9-1C37.3,39.6,44,30.6,44,20C35.6,20,28.3,24.3,24,30.9z"/>
</svg>
