<?xml version="1.0" encoding="utf-8"?>
<!-- Generator: Adobe Illustrator 23.0.1, SVG Export Plug-In . SVG Version: 6.00 Build 0)  -->
<svg version="1.1" id="Layer_1" xmlns="http://www.w3.org/2000/svg" xmlns:xlink="http://www.w3.org/1999/xlink" x="0px" y="0px"
	 viewBox="0 0 48 48" style="enable-background:new 0 0 48 48;" xml:space="preserve">
<style type="text/css">
	.st0{fill:none;}
</style>
<g>
	<path class="st0" d="M24.1,24L14,34.1c0,2.9,1.3,5.5,3.3,7.3l14.1-14.1C29.6,25.3,27,24,24.1,24z"/>
	<path class="st0" d="M20,43.2c0.8,0.4,1.7,0.6,2.7,0.7l11.2-11.2c-0.1-0.9-0.4-1.8-0.7-2.7L20,43.2z"/>
	<path d="M24.1,20L36,14V0H12v14l11.9,6c-7.7,0-14,6.3-14,14c0,7.8,6.3,14,14,14s14-6.3,14-14C38,26.3,31.8,20,24.1,20z M14,34.1
		L24.1,24c2.9,0,5.5,1.3,7.3,3.3L17.3,41.4C15.3,39.6,14,37,14,34.1z M22.7,43.9c-0.9-0.1-1.8-0.4-2.7-0.7L33.2,30
		c0.4,0.8,0.6,1.7,0.7,2.7L22.7,43.9z"/>
</g>
</svg>
