<?xml version="1.0" encoding="utf-8"?>
<!-- Generator: Adobe Illustrator 23.0.1, SVG Export Plug-In . SVG Version: 6.00 Build 0)  -->
<svg version="1.1" id="Layer_1" xmlns="http://www.w3.org/2000/svg" xmlns:xlink="http://www.w3.org/1999/xlink" x="0px" y="0px"
	 viewBox="0 0 48 48" style="enable-background:new 0 0 48 48;" xml:space="preserve">
<g>
	<path d="M16.8,25.3c1,0,2.1-0.1,3-0.2c0.9-1.9,2.2-3.6,3.7-5c-2.2,0.5-4.5,0.7-6.8,0.7c-5,0-10-1.1-13.3-3.3
		C3.2,18.1,3,18.7,3,19.2C3,22.6,9.2,25.3,16.8,25.3z"/>
	<ellipse cx="16.8" cy="11.5" rx="13.8" ry="6.1"/>
	<path d="M16.8,33.1c0.6,0,1.2,0,1.7-0.1c-0.1-0.5-0.1-1.1-0.1-1.6c0-1,0.1-1.9,0.3-2.8c-0.6,0-1.3,0.1-1.9,0.1
		c-5,0-10-1.1-13.3-3.3C3.2,25.9,3,26.4,3,27C3,30.3,9.2,33.1,16.8,33.1z"/>
	<path d="M16.8,36.4c-5,0-10-1.1-13.3-3.3C3.2,33.6,3,34.1,3,34.7c0,3.4,6.2,6.1,13.8,6.1c1.7,0,3.2-0.1,4.7-0.4
		c-1-1.2-1.7-2.6-2.2-4.2C18.5,36.3,17.6,36.4,16.8,36.4z"/>
	<ellipse transform="matrix(0.9732 -0.2298 0.2298 0.9732 -6.3197 8.5124)" cx="33.4" cy="31.4" rx="11.6" ry="11.6"/>
</g>
</svg>
