<?xml version="1.0" encoding="utf-8"?>
<!-- Generator: Adobe Illustrator 23.0.1, SVG Export Plug-In . SVG Version: 6.00 Build 0)  -->
<svg version="1.1" id="Layer_1" xmlns="http://www.w3.org/2000/svg" xmlns:xlink="http://www.w3.org/1999/xlink" x="0px" y="0px"
	 viewBox="0 0 48 48" style="enable-background:new 0 0 48 48;" xml:space="preserve">
<circle cx="24" cy="24" r="6.4"/>
<path d="M18,4l-3.7,4H8c-2.2,0-4,1.8-4,4v24c0,2.2,1.8,4,4,4h32c2.2,0,4-1.8,4-4V12c0-2.2-1.8-4-4-4h-6.3L30,4H18z M24,34
	c-5.5,0-10-4.5-10-10s4.5-10,10-10s10,4.5,10,10S29.5,34,24,34z"/>
</svg>
