<?xml version="1.0" encoding="utf-8"?>
<!-- Generator: Adobe Illustrator 23.0.1, SVG Export Plug-In . SVG Version: 6.00 Build 0)  -->
<svg version="1.1" id="Layer_1" xmlns="http://www.w3.org/2000/svg" xmlns:xlink="http://www.w3.org/1999/xlink" x="0px" y="0px"
	 viewBox="0 0 48 48" style="enable-background:new 0 0 48 48;" xml:space="preserve">
<path d="M24,6C14.1,6,6,14.1,6,24s8.1,18,18,18c1.7,0,3-1.3,3-3c0-0.8-0.3-1.5-0.8-2c-0.5-0.5-0.8-1.2-0.8-2c0-1.7,1.3-3,3-3H32
	c5.5,0,10-4.5,10-10C42,13.2,33.9,6,24,6z M13,24c-1.7,0-3-1.3-3-3s1.3-3,3-3s3,1.3,3,3S14.7,24,13,24z M19,16c-1.7,0-3-1.3-3-3
	s1.3-3,3-3s3,1.3,3,3S20.7,16,19,16z M29,16c-1.7,0-3-1.3-3-3s1.3-3,3-3s3,1.3,3,3S30.7,16,29,16z M35,24c-1.7,0-3-1.3-3-3
	s1.3-3,3-3s3,1.3,3,3S36.7,24,35,24z"/>
</svg>
