<?xml version="1.0" encoding="utf-8"?>
<!-- Generator: Adobe Illustrator 23.0.1, SVG Export Plug-In . SVG Version: 6.00 Build 0)  -->
<svg version="1.1" id="Layer_1" xmlns="http://www.w3.org/2000/svg" xmlns:xlink="http://www.w3.org/1999/xlink" x="0px" y="0px"
	 viewBox="0 0 48 48" style="enable-background:new 0 0 48 48;" xml:space="preserve">
<g>
	<path d="M44.6,34.9L19.1,9.5l-5.7,5.7l25.5,25.5c1.6,1.6,4.1,1.6,5.7,0S46.2,36.5,44.6,34.9z"/>
	<path d="M36.1,15.1c1.6-1.6,1.6-4.1,0-5.7l-5.7-5.7c-1.6-1.6-4.1-1.6-5.7,0L22,6.7L33.3,18L36.1,15.1z"/>
	<path d="M13.5,32.1c1.6,1.6,4.1,1.6,5.7,0l2.8-2.8L10.7,18l-2.8,2.8c-1.6,1.6-1.6,4.1,0,5.7L13.5,32.1z"/>
	<rect x="2" y="40" width="26" height="6"/>
</g>
</svg>
