<?xml version="1.0" encoding="utf-8"?>
<!-- Generator: Adobe Illustrator 23.0.1, SVG Export Plug-In . SVG Version: 6.00 Build 0)  -->
<svg version="1.1" id="Layer_1" xmlns="http://www.w3.org/2000/svg" xmlns:xlink="http://www.w3.org/1999/xlink" x="0px" y="0px"
	 viewBox="0 0 48 48" style="enable-background:new 0 0 48 48;" xml:space="preserve">
<style type="text/css">
	.st0{fill:none;}
</style>
<g>
	<path class="st0" d="M37.8,34.3c-1.9,0-3.5,1.6-3.5,3.5c0,1.9,1.6,3.5,3.5,3.5c1.9,0,3.5-1.6,3.5-3.5
		C41.3,35.9,39.8,34.3,37.8,34.3z"/>
	<path d="M37.8,29.6c-0.4,0-0.7,0-1,0.1L27.1,20c0.8-1.9,1.1-4.1,0.9-6.4C27.2,7.8,22.6,3.1,16.8,2.3c-2.4-0.3-4.6,0-6.6,0.8
		C9.9,3.2,9.8,3.6,10,3.8c1.8,1.8,8.1,8.1,8.1,8.1l-6.4,6.4l-8.1-8.1C3.5,10,3.1,10,2.9,10.3c-0.8,2-1.1,4.2-0.8,6.6
		c0.8,5.8,5.5,10.5,11.3,11.1c2.4,0.3,4.6-0.1,6.6-0.9l9.7,9.7c0,0.3-0.1,0.7-0.1,1c0,4.5,3.7,8.2,8.2,8.2c4.5,0,8.2-3.7,8.2-8.2
		C46,33.3,42.3,29.6,37.8,29.6z M37.8,41.3c-1.9,0-3.5-1.6-3.5-3.5c0-1.9,1.6-3.5,3.5-3.5c1.9,0,3.5,1.6,3.5,3.5
		C41.3,39.8,39.8,41.3,37.8,41.3z"/>
</g>
</svg>
