<?xml version="1.0" encoding="utf-8"?>
<!-- Generator: Adobe Illustrator 23.0.1, SVG Export Plug-In . SVG Version: 6.00 Build 0)  -->
<svg version="1.1" id="Layer_1" xmlns="http://www.w3.org/2000/svg" xmlns:xlink="http://www.w3.org/1999/xlink" x="0px" y="0px"
	 viewBox="0 0 48 48" style="enable-background:new 0 0 48 48;" xml:space="preserve">
<path d="M38.7,11.1c-2.8-5.6-7.8-3.3-11.2-1.7c-0.3,0.1-0.5,0.2-0.8,0.4c-0.2,0.1-0.3,0.2-0.5,0.2c0,0-0.1,0-0.1,0.1h0
	c-0.6,0.2-1.3,0.3-2.1,0.3s-1.5-0.1-2.1-0.3h0c0,0-0.1,0-0.1-0.1c-0.2-0.1-0.4-0.1-0.5-0.2c-0.3-0.1-0.5-0.2-0.8-0.4
	c-3.3-1.5-8.4-3.9-11.2,1.7c-3.1,6.1,1.4,22.9,4.9,28.5c1,1.6,1.9,2.4,2.9,2.4c2.2,0,2.5-2.6,2.8-5.3c0.5-4,1.1-6.9,4.1-6.9
	c3.1,0,3.6,2.9,4.1,6.9c0.3,2.7,0.6,5.3,2.8,5.3c1,0,1.9-0.8,2.9-2.4C37.3,33.9,41.8,17.2,38.7,11.1z"/>
</svg>
