<?xml version="1.0" encoding="utf-8"?>
<!-- Generator: Adobe Illustrator 23.0.1, SVG Export Plug-In . SVG Version: 6.00 Build 0)  -->
<svg version="1.1" id="Layer_1" xmlns="http://www.w3.org/2000/svg" xmlns:xlink="http://www.w3.org/1999/xlink" x="0px" y="0px"
	 viewBox="0 0 48 48" style="enable-background:new 0 0 48 48;" xml:space="preserve">
<rect x="6" y="44" width="36" height="4"/>
<rect x="35.7" y="0" transform="matrix(0.7071 -0.7071 0.7071 0.7071 4.499 30.1157)" width="5.8" height="19.2"/>
<path d="M28.5,8.1L17.8,18.8c-0.7,0.7-0.9,1.7-0.6,2.7l2.8,8.4c0.7-0.3,1.3-0.7,1.8-1.2c1.4-1.4,1.9-3.5,1.3-5.4l-0.6-1.8l1.8-1.8
	c0.5-0.5,1.2-0.8,1.8-0.8h13.3L28.5,8.1z"/>
<path d="M38,41V22l-11.8,0l-0.4,0.4l0,0.1c1,3,0.2,6.2-2,8.4c-0.8,0.8-1.8,1.4-2.8,1.8l-2.9,1.1l-3.8-11.4c-0.1-0.3-0.2-0.6-0.2-0.8
	H10V41H38z"/>
</svg>
