<?xml version="1.0" encoding="utf-8"?>
<!-- Generator: Adobe Illustrator 23.0.1, SVG Export Plug-In . SVG Version: 6.00 Build 0)  -->
<svg version="1.1" id="Layer_1" xmlns="http://www.w3.org/2000/svg" xmlns:xlink="http://www.w3.org/1999/xlink" x="0px" y="0px"
	 viewBox="0 0 48 48" style="enable-background:new 0 0 48 48;" xml:space="preserve">
<g>
	<ellipse transform="matrix(0.9871 -0.1602 0.1602 0.9871 -3.2071 1.5483)" cx="8" cy="20.7" rx="5.3" ry="5.3"/>
	<ellipse transform="matrix(0.9871 -0.1602 0.1602 0.9871 -2.7939 6.6741)" cx="40" cy="20.7" rx="5.3" ry="5.3"/>
	<path d="M40,26c-3,0-5.6,1.6-7,4.1c-1.5-3.5-5-5.9-9-5.9s-7.5,2.4-9,5.9c-1.4-2.4-4-4.1-7-4.1c-4.4,0-8,3.6-8,8h14.1H16h16h1.9H48
		C48,29.6,44.4,26,40,26z"/>
	<ellipse transform="matrix(0.3827 -0.9239 0.9239 0.3827 -1.4183 33.0202)" cx="24" cy="17.6" rx="6.6" ry="6.6"/>
</g>
</svg>
