<?xml version="1.0" encoding="utf-8"?>
<!-- Generator: Adobe Illustrator 23.0.1, SVG Export Plug-In . SVG Version: 6.00 Build 0)  -->
<svg version="1.1" id="Layer_1" xmlns="http://www.w3.org/2000/svg" xmlns:xlink="http://www.w3.org/1999/xlink" x="0px" y="0px"
	 viewBox="0 0 48 48" style="enable-background:new 0 0 48 48;" xml:space="preserve">
<path d="M8,32c0,1.8,0.8,3.3,2,4.4V41c0,1.6,1.3,3,3,3h0c1.6,0,3-1.3,3-3v-3h16v3c0,1.6,1.3,3,3,3h0c1.6,0,3-1.3,3-3v-4.6
	c1.2-1.1,2-2.7,2-4.4V12c0-7-7.2-8-16-8S8,5,8,12V32z M15.6,33.9c-2.1,0.4-3.9-1.4-3.5-3.5c0.2-1.2,1.2-2.1,2.4-2.4
	c2.1-0.4,3.9,1.4,3.5,3.5C17.7,32.8,16.8,33.7,15.6,33.9z M33.6,33.9c-2.1,0.4-3.9-1.4-3.5-3.5c0.2-1.2,1.2-2.1,2.4-2.4
	c2.1-0.4,3.9,1.4,3.5,3.5C35.7,32.8,34.8,33.7,33.6,33.9z M36,22H12V12h24V22z"/>
</svg>
