<?xml version="1.0" encoding="utf-8"?>
<!-- Generator: Adobe Illustrator 23.0.1, SVG Export Plug-In . SVG Version: 6.00 Build 0)  -->
<svg version="1.1" id="Layer_1" xmlns="http://www.w3.org/2000/svg" xmlns:xlink="http://www.w3.org/1999/xlink" x="0px" y="0px"
	 viewBox="0 0 48 48" style="enable-background:new 0 0 48 48;" xml:space="preserve">
<style type="text/css">
	.st0{fill:none;}
</style>
<g>
	<path class="st0" d="M24,6.5c-1.8,2.6-3.3,5.6-4.2,8.7h8.4C27.3,12,25.8,9.1,24,6.5z"/>
	<path class="st0" d="M8.8,32.8c2.1,3.7,5.5,6.4,9.5,7.8c-1.3-2.5-2.3-5.1-3-7.8H8.8z"/>
	<path class="st0" d="M14.1,24c0-1.5,0.1-2.9,0.3-4.4H7C6.6,21,6.4,22.5,6.4,24s0.2,3,0.6,4.4h7.4C14.2,26.9,14.1,25.5,14.1,24z"/>
	<path class="st0" d="M39.2,15.2c-2.1-3.6-5.5-6.4-9.5-7.8c1.3,2.5,2.3,5.1,3,7.8H39.2z"/>
	<path class="st0" d="M18.3,7.4c-4,1.4-7.4,4.2-9.5,7.8h6.5C16,12.5,17,9.8,18.3,7.4z"/>
	<path class="st0" d="M24,41.5c1.8-2.6,3.3-5.6,4.2-8.7h-8.4C20.7,36,22.2,38.9,24,41.5z"/>
	<path class="st0" d="M41,19.6h-7.4c0.2,1.5,0.3,2.9,0.3,4.4s-0.1,2.9-0.3,4.4H41c0.4-1.4,0.6-2.9,0.6-4.4S41.4,21,41,19.6z"/>
	<path class="st0" d="M29.7,40.6c4.1-1.4,7.4-4.2,9.5-7.8h-6.5C32,35.6,31,38.2,29.7,40.6z"/>
	<path class="st0" d="M18.9,19.6c-0.2,1.4-0.4,2.9-0.4,4.4s0.2,2.9,0.4,4.4h10.3c0.2-1.5,0.4-2.9,0.4-4.4s-0.2-3-0.4-4.4H18.9z"/>
	<path d="M24,2C11.8,2,2,11.9,2,24s9.9,22,22,22c12.2,0,22-9.9,22-22S36.1,2,24,2z M39.2,15.2h-6.5c-0.7-2.7-1.7-5.4-3-7.8
		C33.8,8.8,37.1,11.6,39.2,15.2z M24,6.5c1.8,2.6,3.3,5.5,4.2,8.7h-8.4C20.7,12.1,22.2,9.1,24,6.5z M18.3,7.4
		c-1.3,2.5-2.3,5.1-3,7.8H8.7C10.8,11.5,14.2,8.8,18.3,7.4z M7,28.4C6.6,27,6.4,25.5,6.4,24s0.2-3,0.6-4.4h7.4
		c-0.2,1.5-0.3,2.9-0.3,4.4s0.1,2.9,0.3,4.4H7z M8.8,32.8h6.5c0.7,2.7,1.7,5.4,3,7.8C14.3,39.2,10.9,36.5,8.8,32.8z M24,41.5
		c-1.8-2.6-3.3-5.5-4.2-8.7h8.4C27.3,35.9,25.8,38.9,24,41.5z M29.1,28.4H18.9c-0.2-1.5-0.4-2.9-0.4-4.4s0.2-3,0.4-4.4h10.3
		c0.2,1.4,0.4,2.9,0.4,4.4S29.3,26.9,29.1,28.4z M29.7,40.6c1.3-2.4,2.3-5.1,3-7.8h6.5C37.1,36.4,33.8,39.2,29.7,40.6z M33.6,28.4
		c0.2-1.5,0.3-2.9,0.3-4.4s-0.1-2.9-0.3-4.4H41c0.4,1.4,0.6,2.9,0.6,4.4s-0.2,3-0.6,4.4H33.6z"/>
</g>
</svg>
