<?xml version="1.0" encoding="utf-8"?>
<!-- Generator: Adobe Illustrator 23.0.1, SVG Export Plug-In . SVG Version: 6.00 Build 0)  -->
<svg version="1.1" id="Layer_1" xmlns="http://www.w3.org/2000/svg" xmlns:xlink="http://www.w3.org/1999/xlink" x="0px" y="0px"
	 viewBox="0 0 48 48" style="enable-background:new 0 0 48 48;" xml:space="preserve">
<path d="M40,16h-6V8H6c-2.2,0-4,1.8-4,4v22h4c0,3.3,2.7,6,6,6s6-2.7,6-6h12c0,3.3,2.7,6,6,6s6-2.7,6-6h4V24L40,16z M12,37
	c-1.7,0-3-1.3-3-3s1.3-3,3-3s3,1.3,3,3S13.7,37,12,37z M39,19l3.9,5H34v-5H39z M36,37c-1.7,0-3-1.3-3-3s1.3-3,3-3s3,1.3,3,3
	S37.7,37,36,37z"/>
</svg>
