<?xml version="1.0" encoding="utf-8"?>
<!-- Generator: Adobe Illustrator 23.0.1, SVG Export Plug-In . SVG Version: 6.00 Build 0)  -->
<svg version="1.1" id="Layer_1" xmlns="http://www.w3.org/2000/svg" xmlns:xlink="http://www.w3.org/1999/xlink" x="0px" y="0px"
	 viewBox="0 0 48 48" style="enable-background:new 0 0 48 48;" xml:space="preserve">
<style type="text/css">
	.st0{fill:none;}
</style>
<g>
	<circle class="st0" cx="24" cy="34.8" r="2.6"/>
	<circle class="st0" cx="24" cy="24.5" r="2.6"/>
	<circle class="st0" cx="13.7" cy="24.5" r="2.6"/>
	<circle class="st0" cx="34.3" cy="24.5" r="2.6"/>
	<circle class="st0" cx="13.7" cy="34.8" r="2.6"/>
	<path d="M4,39.4c0,2.5,2,4.5,4.5,4.5h31.1c2.5,0,4.5-2,4.5-4.5V17H4V39.4z M34.3,21.9c1.4,0,2.6,1.2,2.6,2.6c0,1.4-1.2,2.6-2.6,2.6
		c-1.4,0-2.6-1.2-2.6-2.6C31.7,23.1,32.9,21.9,34.3,21.9z M24,21.9c1.4,0,2.6,1.2,2.6,2.6c0,1.4-1.2,2.6-2.6,2.6s-2.6-1.2-2.6-2.6
		C21.4,23.1,22.6,21.9,24,21.9z M24,32.2c1.4,0,2.6,1.2,2.6,2.6s-1.2,2.6-2.6,2.6s-2.6-1.2-2.6-2.6S22.6,32.2,24,32.2z M13.7,21.9
		c1.4,0,2.6,1.2,2.6,2.6c0,1.4-1.2,2.6-2.6,2.6c-1.4,0-2.6-1.2-2.6-2.6C11.1,23.1,12.3,21.9,13.7,21.9z M13.7,32.2
		c1.4,0,2.6,1.2,2.6,2.6s-1.2,2.6-2.6,2.6c-1.4,0-2.6-1.2-2.6-2.6S12.3,32.2,13.7,32.2z"/>
	<polygon points="37.9,8 37.9,4 35,4 35,8 13,8 13,4 9.9,4 9.9,8 4,8 4,14 44,14 44,8 	"/>
</g>
</svg>
