<?xml version="1.0" encoding="utf-8"?>
<!-- Generator: Adobe Illustrator 23.0.1, SVG Export Plug-In . SVG Version: 6.00 Build 0)  -->
<svg version="1.1" id="Layer_1" xmlns="http://www.w3.org/2000/svg" xmlns:xlink="http://www.w3.org/1999/xlink" x="0px" y="0px"
	 viewBox="0 0 48 48" style="enable-background:new 0 0 48 48;" xml:space="preserve">
<style type="text/css">
	.st0{fill:none;}
</style>
<path class="st0" d="M2,2h43.5v43.5H2V2z"/>
<path d="M30.1,12c2,0,3.6-1.6,3.6-3.6s-1.6-3.6-3.6-3.6s-3.6,1.6-3.6,3.6S28.1,12,30.1,12z M11.1,23.8c-5.1,0-9.1,4-9.1,9.1
	s4,9.1,9.1,9.1s9.1-4,9.1-9.1S16.1,23.8,11.1,23.8z M11.1,39.2c-3.4,0-6.3-2.9-6.3-6.3s2.9-6.3,6.3-6.3s6.3,2.9,6.3,6.3
	S14.5,39.2,11.1,39.2z M21.6,21l4.4-4.4l1.5,1.5c2.4,2.4,5.4,3.8,9.2,3.8v-3.6c-2.7,0-4.9-1.1-6.5-2.7l-3.4-3.4
	c-0.9-0.7-1.8-1.1-2.9-1.1s-2,0.4-2.5,1.1l-5.1,5.1c-0.7,0.7-1.1,1.6-1.1,2.5c0,1.1,0.4,2,1.1,2.5l5.8,5.1v9.1h3.6V25.2L21.6,21z
	 M36.4,23.8c-5.1,0-9.1,4-9.1,9.1s4,9.1,9.1,9.1s9.1-4,9.1-9.1S41.5,23.8,36.4,23.8z M36.4,39.2c-3.4,0-6.3-2.9-6.3-6.3
	s2.9-6.3,6.3-6.3c3.4,0,6.3,2.9,6.3,6.3S39.9,39.2,36.4,39.2z"/>
</svg>
