<?xml version="1.0" encoding="utf-8"?>
<!-- Generator: Adobe Illustrator 23.0.1, SVG Export Plug-In . SVG Version: 6.00 Build 0)  -->
<svg version="1.1" id="Layer_1" xmlns="http://www.w3.org/2000/svg" xmlns:xlink="http://www.w3.org/1999/xlink" x="0px" y="0px"
	 viewBox="0 0 48 48" style="enable-background:new 0 0 48 48;" xml:space="preserve">
<style type="text/css">
	.st0{fill:none;}
</style>
<g>
	<rect x="35" y="7" class="st0" width="4" height="19"/>
	<rect x="13" y="7" class="st0" width="4" height="11"/>
	<path d="M20.2,21.4C20.2,21.4,20.2,21.4,20.2,21.4L20,21.1V7V6V4H10v2v1v14.1l-0.2,0.3c0,0,0,0,0,0L3.7,33.1
		c-2.1,4,0.8,8.9,5.4,8.9h11.8c4.6,0,7.5-4.9,5.4-8.9L20.2,21.4z M17,18h-4V7h4V18z"/>
	<path d="M32,4v2v1v30c0,2.8,2.2,5,5,5s5-2.2,5-5V7V6V4H32z M39,26h-4V7h4V26z"/>
</g>
</svg>
