<?xml version="1.0" encoding="utf-8"?>
<!-- Generator: Adobe Illustrator 23.0.1, SVG Export Plug-In . SVG Version: 6.00 Build 0)  -->
<svg version="1.1" id="Layer_1" xmlns="http://www.w3.org/2000/svg" xmlns:xlink="http://www.w3.org/1999/xlink" x="0px" y="0px"
	 viewBox="0 0 48 48" style="enable-background:new 0 0 48 48;" xml:space="preserve">
<path d="M10,26.4V32c0,1.5,0.8,2.8,2.1,3.5l10,5.5c1.2,0.7,2.6,0.7,3.8,0l10-5.5c1.3-0.7,2.1-2.1,2.1-3.5v-5.6L25.9,33
	c-1.2,0.7-2.6,0.7-3.8,0L10,26.4z M22.1,7L5.2,16.2c-1.4,0.8-1.4,2.8,0,3.5L22.1,29c1.2,0.7,2.6,0.7,3.8,0L42,20.2V32
	c0,1.1,0.9,2,2,2s2-0.9,2-2V19.2c0-0.7-0.4-1.4-1-1.8L25.9,7C24.7,6.4,23.3,6.4,22.1,7z"/>
</svg>
