<?xml version="1.0" encoding="utf-8"?>
<!-- Generator: Adobe Illustrator 23.0.1, SVG Export Plug-In . SVG Version: 6.00 Build 0)  -->
<svg version="1.1" id="Layer_1" xmlns="http://www.w3.org/2000/svg" xmlns:xlink="http://www.w3.org/1999/xlink" x="0px" y="0px"
	 viewBox="0 0 48 48" style="enable-background:new 0 0 48 48;" xml:space="preserve">
<style type="text/css">
	.st0{fill:none;}
</style>
<g>
	<circle class="st0" cx="24" cy="24" r="1"/>
	<circle class="st0" cx="12" cy="36" r="4"/>
	<circle class="st0" cx="12" cy="12" r="4"/>
	<polygon points="38,6 26,18 30,22 44,8 44,6 	"/>
	<path d="M20,12c0-4.4-3.6-8-8-8s-8,3.6-8,8s3.6,8,8,8c1.2,0,2.3-0.3,3.3-0.7L20,24l-4.7,4.7c-1-0.4-2.1-0.7-3.3-0.7
		c-4.4,0-8,3.6-8,8s3.6,8,8,8s8-3.6,8-8c0-1.2-0.3-2.3-0.7-3.3L24,28l14,14h6v-2L19.3,15.3C19.7,14.3,20,13.2,20,12z M12,16
		c-2.2,0-4-1.8-4-4s1.8-4,4-4s4,1.8,4,4S14.2,16,12,16z M12,40c-2.2,0-4-1.8-4-4s1.8-4,4-4s4,1.8,4,4S14.2,40,12,40z M24,23
		c0.5,0,1,0.5,1,1s-0.5,1-1,1s-1-0.5-1-1S23.5,23,24,23z"/>
</g>
</svg>
