<?xml version="1.0" encoding="utf-8"?>
<!-- Generator: Adobe Illustrator 23.0.1, SVG Export Plug-In . SVG Version: 6.00 Build 0)  -->
<svg version="1.1" id="Layer_1" xmlns="http://www.w3.org/2000/svg" xmlns:xlink="http://www.w3.org/1999/xlink" x="0px" y="0px"
	 viewBox="0 0 48 48" style="enable-background:new 0 0 48 48;" xml:space="preserve">
<style type="text/css">
	.st0{fill:none;}
</style>
<g>
	<rect x="13" y="24" class="st0" width="16" height="4"/>
	<rect x="13" y="32" class="st0" width="16" height="4"/>
	<path d="M12.1,12C9.8,12,8,13.8,8,16.1v23.8c0,2.3,1.8,4.1,4.1,4.1h17.8c2.3,0,4.1-1.8,4.1-4.1V19.2L26.8,12H12.1z M29,36H13v-4h16
		V36z M29,28H13v-4h16V28z"/>
	<path d="M34.8,4H20.1C17.8,4,16,5.8,16,8.1V9h12l9,9v18h0.9c2.3,0,4.1-1.8,4.1-4.1V11.2L34.8,4z"/>
</g>
</svg>
