<?xml version="1.0" encoding="utf-8"?>
<!-- Generator: Adobe Illustrator 23.0.3, SVG Export Plug-In . SVG Version: 6.00 Build 0)  -->
<svg version="1.1" id="Layer_1" xmlns="http://www.w3.org/2000/svg" xmlns:xlink="http://www.w3.org/1999/xlink" x="0px" y="0px"
	 viewBox="0 0 48 48" style="enable-background:new 0 0 48 48;" xml:space="preserve">
<style type="text/css">
	.st0{fill:none;}
</style>
<g>
	<path class="st0" d="M29.5,11.5c-4.1-4.1-10.9-4.1-15,0s-4.1,10.9,0,15s10.9,4.1,15,0C33.7,22.4,33.7,15.6,29.5,11.5z M15.8,13H22
		v4h-8.4C14,15.5,14.7,14.2,15.8,13z M13.4,20H26v4H15C14.1,22.8,13.6,21.4,13.4,20z"/>
	<path d="M44.2,34.1l-9.6-9.6c2.2-5,1.2-11-2.9-15.1c-5.3-5.3-14-5.3-19.3,0c-1.1,1.1-2,2.3-2.6,3.7H0v4h8.5c-0.1,1-0.2,2-0.1,3H4v4
		h5.3c0.7,1.7,1.7,3.3,3.1,4.7c4.1,4.1,10.1,5,15.1,2.9l9.6,9.6c2,2,5.1,2,7.1,0S46.1,36,44.2,34.1z M14.5,26.5
		c-4.1-4.1-4.1-10.9,0-15s10.9-4.1,15,0s4.1,10.9,0,15C25.4,30.7,18.6,30.7,14.5,26.5z"/>
	<path d="M22,13h-6.2c-1.1,1.2-1.8,2.5-2.2,4H22V13z"/>
	<path d="M26,20H13.4c0.2,1.4,0.7,2.8,1.5,4h11v-4H26z"/>
</g>
</svg>
