<?xml version="1.0" encoding="utf-8"?>
<!-- Generator: Adobe Illustrator 23.0.1, SVG Export Plug-In . SVG Version: 6.00 Build 0)  -->
<svg version="1.1" id="Layer_1" xmlns="http://www.w3.org/2000/svg" xmlns:xlink="http://www.w3.org/1999/xlink" x="0px" y="0px"
	 viewBox="0 0 48 48" style="enable-background:new 0 0 48 48;" xml:space="preserve">
<g>
	<path d="M6.3,9.2c-1.4,3-0.9,6.6,1.6,9.1l8.4,8.4l5.7-5.7L9.5,8.7C8.5,7.7,6.9,8,6.3,9.2z"/>
	<path d="M39.2,38.4L26.8,26l2.6-2.6c2.6,1.2,5,1.5,9.1-2.5l6.1-6.1l-2-2l-6.4,6.4c-0.5,0.5-1.2,0.5-1.7,0c-0.5-0.5-0.5-1.2,0-1.7
		l6.4-6.4l-2-2l-6.4,6.4c-0.5,0.5-1.2,0.5-1.7,0c-0.5-0.5-0.5-1.2,0-1.7l6.4-6.4l-2-2l-6.1,6.1c-4.1,4.1-3.7,6.5-2.5,9.1L8.8,38.3
		c-0.8,0.8-0.8,2,0,2.8c0.8,0.8,2,0.8,2.8,0L24,28.8l12.4,12.4c0.8,0.8,2,0.8,2.8,0C40,40.4,40,39.1,39.2,38.4z"/>
</g>
</svg>
