<?xml version="1.0" encoding="utf-8"?>
<!-- Generator: Adobe Illustrator 23.0.1, SVG Export Plug-In . SVG Version: 6.00 Build 0)  -->
<svg version="1.1" id="Layer_1" xmlns="http://www.w3.org/2000/svg" xmlns:xlink="http://www.w3.org/1999/xlink" x="0px" y="0px"
	 viewBox="0 0 48 48" style="enable-background:new 0 0 48 48;" xml:space="preserve">
<g>
	<path d="M6.9,10.8L6.9,10.8l16.5,10.5c0.3,0.2,0.8,0.2,1.1,0l16.4-10.5c0.6-0.4,0.5-0.9,0.4-1.1c-0.1-0.2-0.3-0.7-1-0.7H7.5
		c-0.7,0-0.9,0.5-1,0.7C6.5,9.9,6.4,10.4,6.9,10.8z"/>
	<path d="M43,14.1L26.7,24.6c-0.8,0.5-1.8,0.8-2.7,0.8c-0.9,0-1.9-0.3-2.7-0.8L4.8,14.2C4.5,14,4.3,13.8,4,13.5l0,22.4
		c0,2.2,1.8,4,4,4h32c2.2,0,4-1.8,4-4V13.3C43.7,13.6,43.4,13.9,43,14.1z"/>
</g>
</svg>
