<?xml version="1.0" encoding="utf-8"?>
<!-- Generator: Adobe Illustrator 23.0.1, SVG Export Plug-In . SVG Version: 6.00 Build 0)  -->
<svg version="1.1" id="Layer_1" xmlns="http://www.w3.org/2000/svg" xmlns:xlink="http://www.w3.org/1999/xlink" x="0px" y="0px"
	 viewBox="0 0 48 48" style="enable-background:new 0 0 48 48;" xml:space="preserve">
<style type="text/css">
	.st0{fill:none;}
</style>
<g>
	<polygon class="st0" points="35.8,10.2 26.6,4.8 22,7.5 31.2,12.8 	"/>
	<path d="M43.9,17.9L43.9,17.9l-22.4,13L6,22c-0.6-1-0.9-2.2-0.9-3.5c0-0.5,0.1-1,0.2-1.5l16.2,9.4L44,13.3l0-2.5L26.4,0.6L3.9,13.7
		l0,0c-0.8,1.4-1.3,3-1.3,4.8c0,1.3,0.3,2.5,0.7,3.6c-0.4,1.1-0.7,2.3-0.7,3.6c0,1.3,0.3,2.5,0.7,3.6c-0.4,1.1-0.7,2.3-0.7,3.6
		c0,1.7,0.5,3.4,1.2,4.8h0v0l17.6,10.2L44,34.8l0-2.5L21.5,45.3L6,36.4c-0.6-1-0.9-2.2-0.9-3.5c0-0.5,0.1-1,0.2-1.5l16.2,9.4
		L44,27.7l0-2.5l0,0l0-0.1l-0.1,0.1l0,0l-22.4,13L6,29.2c-0.6-1-0.9-2.2-0.9-3.5c0-0.5,0.1-1,0.2-1.5l16.2,9.4L44,20.5L43.9,17.9
		L43.9,17.9L43.9,17.9L43.9,17.9z M26.6,4.8l9.3,5.3l-4.6,2.7L22,7.5L26.6,4.8z"/>
</g>
</svg>
