<svg id="ORIGINAL_2_copy_2" data-name="ORIGINAL 2 copy 2" xmlns="http://www.w3.org/2000/svg" viewBox="0 0 1971.15 1152.3"><defs><style>.cls-1{fill:#e40017;}.cls-2{fill:#ffcd00;}</style></defs><title>VT-Logo-01-Vertikal-RGB</title><path class="cls-1" d="M976.36,282.75V642.22c0,9.48.47,24.17,1.38,33.42,14.16,142.93,135.13,254.6,282.25,254.6s268.08-111.67,282.24-254.6c.92-9.25,1.39-23.94,1.39-33.42V282.75Z" transform="translate(-272.58 -282.75)"/><path class="cls-2" d="M1267.55,752.86a.28.28,0,0,1,.22-.32.27.27,0,0,1,.33.18c9,28.15,25.55,54.08,46.2,76.59,8.5-3.46,17.63-6.69,26.9-10.21-35.07-30.67-65-71.35-73.65-118.51a.29.29,0,0,1,.55-.15c14.35,45,48.17,84.37,87,113.14A166.85,166.85,0,0,0,1385.89,797c-51.67-30.85-106.07-84.45-118.34-151a.29.29,0,0,1,.55-.14c19.61,61.58,75.63,112.48,131,140.31a96,96,0,0,0,20.3-28.47c-59-24.77-136.82-86.77-151.8-168a.28.28,0,0,1,.22-.32.27.27,0,0,1,.33.18c22.76,71.45,94.54,128.55,157.37,151.87,3.78-13,5.92-28.21,5.92-46.25C1355.6,672,1267.55,582.88,1267.55,493h0V437h-15.11v56.06c0,88-94.11,180.78-163.85,202.11,0,18,2.15,33.28,5.93,46.25,62.83-23.32,134.61-80.42,157.37-151.87a.28.28,0,0,1,.54.14c-15,81.26-92.84,143.25-151.79,168a96,96,0,0,0,20.3,28.47c55.32-27.83,111.34-78.73,131-140.31a.28.28,0,0,1,.33-.18.27.27,0,0,1,.21.32c-12.26,66.53-66.66,120.13-118.33,151a166.85,166.85,0,0,0,30.84,16.56c38.78-28.77,72.6-68.1,87-113.14a.29.29,0,0,1,.33-.18.28.28,0,0,1,.21.33c-8.69,47.16-38.57,87.84-73.64,118.51,9.27,3.52,18.4,6.75,26.9,10.2,20.65-22.5,37.23-48.43,46.2-76.58a.28.28,0,0,1,.54.14c-5.46,29.67-19.31,56.76-37.56,80.42,21.77,10.11,37.56,23.43,37.57,50.73v0h15.11v0c0-27.31,15.8-40.63,37.57-50.74C1286.87,809.62,1273,782.53,1267.55,752.86Z" transform="translate(-272.58 -282.75)"/><ellipse class="cls-2" cx="1437.59" cy="453.04" rx="16.49" ry="16.76" transform="matrix(0.02, -1, 1, 0.02, 686.95, 1599.75)"/><path class="cls-2" d="M1490.67,539.36c-26,62.2-138.41,63.62-158.27-8.43,10.25,17.6,29.53,31.65,58.58,32.16,57.61,1,105.16-46.15,106.19-105.32,0-2.81,0-5.6-.17-8.35-.11-2.48-.35-4.95-.69-7.42a109,109,0,0,0-5-21.63c-6.32-21.11-15.15-42.57-12-65.61a13.33,13.33,0,0,0,4.53.9,13.16,13.16,0,1,0,.46-26.32c-6.87-.12-12.91,3.63-16.9,11.9-5.79,12-1.69,29.83,2.86,42.86-18.71-21.23-36.35-35.29-75.48-35.29-32.19,0-92.58,9.71-105.48-24.29a40.54,40.54,0,0,0-5.89,20.17c-.84,28.68,32.47,32.76,34.2,32.41-38.61,37.18,7.76,88.4,45.37,58.45,3.3-2.63,7.25-7,8.36-11a25.43,25.43,0,0,1-33.56-28.29c4.4-21,26.28-35.86,63.59-35.58-41.68,8.52-37.87,46.71-28.27,49.17,0,0-.24-2.14-.22-3.22.28-16.12,17.58-31.58,42.56-31.58,29.84,0,48.61,23.06,55.4,35.5A44.75,44.75,0,0,0,1399,445.46c-.16,8.9,4.22,24.82,20.16,26.82-18.43-24.79-1.5-47.23,18.74-47.55,21.28-.34,37.28,17.91,37.28,39.19,0,34.09-35.11,57.73-71.78,57.73-15.4,0-31.28-4.75-41.41-13.31a24.91,24.91,0,0,0,17.83-23.45c.24-13.76-10.71-25.34-24.47-25.34-30.54,0-37.69,32.22-37.69,48,0,117.73,162,131.91,152.19,181.9,7.56-4.39,9.66-15,9.08-22.48-1.94-25.53-47.41-50.36-57.16-56.94C1433.88,614.29,1506.6,595.72,1490.67,539.36Z" transform="translate(-272.58 -282.75)"/><path class="cls-2" d="M1034.29,329.38c21.49-1.83,28.5,32.17-1.24,56.49a10.48,10.48,0,0,1-6.44,2.67c4.56-3.44,14.06-21.34,11.83-33.94-8.64,1.2-13.93-3.34-15.49-9.65C1021.08,337.38,1026.82,330,1034.29,329.38Z" transform="translate(-272.58 -282.75)"/><path class="cls-2" d="M1236.74,344.69a40.54,40.54,0,0,0-5.89-20.17c-12.9,34-73.29,24.29-105.47,24.29-60.75,0-103.49,49.79-102.46,109s48.58,106.33,106.2,105.32c27.73-.48,46.57-13.33,57.13-29.81h0c-18,66-127.44,69.45-155.35,6.08-11.39,10.33-7.15,30.3,3.79,35.43-5.77,25.63,36.39,41.69,59,33.52-16,8-69.18,49.62-43.51,81.14-9.94-50.78,152.42-64.23,152.42-179.43,0-10.9-3.57-50.47-37.93-50.47-13.76,0-24.71,11.58-24.47,25.34a24.91,24.91,0,0,0,17.83,23.45c-10.13,9-26,13.31-41.41,13.31-26.26,0-74.19-14.34-74.19-61.46,0-20.42,15.91-37.26,36.34-37.62A36.87,36.87,0,0,1,1107.12,435a18.3,18.3,0,1,0-10.34,33.18c16.58-.29,18.44-18.09,18.65-17.19a43,43,0,0,0-63.26-45.28c18.47-28.48,42.81-30.54,52.54-30.71,25-.43,42.28,15.46,42.56,31.58a19.82,19.82,0,0,1-.41,4.29c11.47-6.56,10-43.1-28-50,33.72-.82,59,13.71,63.53,35.31a25.64,25.64,0,0,1,.37,4.33,25.44,25.44,0,0,1-33.93,24c1.12,4,5.07,8.39,8.37,11,37.6,29.95,84-21.27,45.36-58.45C1204.27,377.45,1237.59,373.37,1236.74,344.69Z" transform="translate(-272.58 -282.75)"/><path d="M315,1215.81l-42.23-138.58-.2-.82c0-1.37.74-2.05,2.25-2.05h25.83a2.7,2.7,0,0,1,2.87,2.05l27.27,100c.13.41.34.61.61.61s.48-.2.61-.61l26.86-100a2.69,2.69,0,0,1,2.87-2.05H387a2,2,0,0,1,2,2.87l-42.85,138.58a2.57,2.57,0,0,1-2.66,2H317.68A2.57,2.57,0,0,1,315,1215.81Z" transform="translate(-272.58 -282.75)"/><path d="M490.67,1171.73a2.38,2.38,0,0,1-2.66,2.46H424.66c-.82,0-1.09.35-.82,1a36.37,36.37,0,0,0,2.26,8.2q5.32,11.47,21.73,11.48,13.11-.21,20.7-10.66a2.28,2.28,0,0,1,1.85-1.23,2.21,2.21,0,0,1,1.43.82l14.76,14.55a2.83,2.83,0,0,1,1,1.85,4.36,4.36,0,0,1-.82,1.64,44.79,44.79,0,0,1-17.43,13A58.26,58.26,0,0,1,446,1219.5q-17.62,0-29.82-8a44.32,44.32,0,0,1-17.53-22.34q-4.31-10.25-4.31-26.86a59,59,0,0,1,3.08-19.88,45.06,45.06,0,0,1,16.5-23.17q11.79-8.61,28-8.61,20.5,0,32.91,11.89t15.06,31.78A87.64,87.64,0,0,1,490.67,1171.73Zm-65.6-24a49.5,49.5,0,0,0-1.43,6.56.9.9,0,0,0,1,1h35.47c.82,0,1.09-.34.82-1-.69-4-1-5.88-1-5.74a17.7,17.7,0,0,0-6.45-9.53,18.7,18.7,0,0,0-11.38-3.39Q429.18,1135.65,425.07,1147.75Z" transform="translate(-272.58 -282.75)"/><path d="M528.08,1215.4q-10.25-3.9-15.88-10.87a24.39,24.39,0,0,1-5.64-15.78v-2a2.37,2.37,0,0,1,.72-1.74,2.34,2.34,0,0,1,1.74-.72h22.75a2.44,2.44,0,0,1,2.46,2.46v.2q0,4.51,5,7.69c3.34,2.12,7.55,3.18,12.6,3.18q7,0,11.28-2.77t4.3-6.87a5.9,5.9,0,0,0-3.69-5.53,62.84,62.84,0,0,0-12.09-3.9,122.09,122.09,0,0,1-15.17-4.71q-13.12-4.52-20.91-11.07t-7.79-18.86q0-15.16,11.79-24.09t31.26-8.92q13.11,0,23,4.21A35.28,35.28,0,0,1,589.07,1127a28.86,28.86,0,0,1,5.43,17.22,2.41,2.41,0,0,1-.71,1.75,2.37,2.37,0,0,1-1.75.71H570.11a2.33,2.33,0,0,1-1.74-.71,2.38,2.38,0,0,1-.72-1.75q0-4.5-4.61-7.58t-12.2-3.08a22.13,22.13,0,0,0-11.07,2.46q-4.31,2.46-4.31,6.77,0,4.1,4.21,6.15t14,4.3q2.25.62,5.12,1.34t6.15,1.74q14.57,4.31,23,11.07t8.41,19.68q0,15.17-12,23.68t-32.29,8.5Q538.33,1219.29,528.08,1215.4Z" transform="translate(-272.58 -282.75)"/><path d="M675.64,1134.94a2.36,2.36,0,0,1-1.74.71H654.22a.91.91,0,0,0-1,1v43.46q0,6.77,2.77,10t8.92,3.28h6.76a2.44,2.44,0,0,1,2.46,2.46v19.48a2.53,2.53,0,0,1-2.46,2.66q-8.61.42-12.29.41-17,0-25.42-5.63t-8.62-21.22v-54.94a.91.91,0,0,0-1-1H612.6a2.44,2.44,0,0,1-2.46-2.46V1115a2.46,2.46,0,0,1,2.46-2.46h11.69a.9.9,0,0,0,1-1v-24.39a2.46,2.46,0,0,1,2.46-2.46h23a2.44,2.44,0,0,1,2.46,2.46v24.39a.91.91,0,0,0,1,1H673.9a2.46,2.46,0,0,1,2.46,2.46v18.24A2.38,2.38,0,0,1,675.64,1134.94Z" transform="translate(-272.58 -282.75)"/><path d="M759.2,1113a2.37,2.37,0,0,1,.72,1.74v19.48a2.46,2.46,0,0,1-2.46,2.46H737.57a.9.9,0,0,0-1,1v77.7a2.46,2.46,0,0,1-2.46,2.46h-24a2.46,2.46,0,0,1-2.46-2.46v-77.7a.9.9,0,0,0-1-1h-12.1a2.46,2.46,0,0,1-2.46-2.46v-19.48a2.46,2.46,0,0,1,2.46-2.46h12.1a.9.9,0,0,0,1-1v-4.51q0-12.7,3.9-19.78t12.6-10q8.72-3,24.09-2.56H756a2.46,2.46,0,0,1,2.46,2.46v16.6a2.44,2.44,0,0,1-2.46,2.46h-6.76q-7.18.21-10,3T736.55,1109v2.26a.9.9,0,0,0,1,1h19.89A2.37,2.37,0,0,1,759.2,1113Z" transform="translate(-272.58 -282.75)"/><path d="M793.74,1210.48a45,45,0,0,1-16.81-24.6,72.69,72.69,0,0,1-2.87-20.91,75.83,75.83,0,0,1,2.87-21.73,44,44,0,0,1,17-23.78q12.3-8.61,29.52-8.61,16.81,0,28.7,8.51T869,1143a70.14,70.14,0,0,1,3.28,21.53,71.92,71.92,0,0,1-2.87,20.7q-4.5,16-16.7,25.12t-29.42,9.12Q806,1219.5,793.74,1210.48Zm41-19.89a22.74,22.74,0,0,0,6.76-11.27,58.78,58.78,0,0,0,1.64-14.35,55.28,55.28,0,0,0-1.64-14.56,22.71,22.71,0,0,0-7-10.86,19,19,0,0,0-23.06,0,21.85,21.85,0,0,0-6.66,10.86q-1.65,4.92-1.64,14.56,0,9.22,1.43,14.35a22.46,22.46,0,0,0,6.87,11.27,17.53,17.53,0,0,0,11.79,4.1A16.87,16.87,0,0,0,834.74,1190.59Z" transform="translate(-272.58 -282.75)"/><path d="M894.19,1217.14a2.37,2.37,0,0,1-.72-1.74V1076.82a2.37,2.37,0,0,1,.72-1.74,2.34,2.34,0,0,1,1.74-.72h24a2.44,2.44,0,0,1,2.46,2.46V1215.4a2.44,2.44,0,0,1-2.46,2.46h-24A2.34,2.34,0,0,1,894.19,1217.14Z" transform="translate(-272.58 -282.75)"/><path d="M1012.84,1075.08a2.37,2.37,0,0,1,1.74-.72h24a2.46,2.46,0,0,1,2.46,2.46V1215.4a2.46,2.46,0,0,1-2.46,2.46h-24a2.46,2.46,0,0,1-2.46-2.46v-6.77c0-.41-.14-.64-.41-.71a.85.85,0,0,0-.82.3q-8.61,11.28-23.57,11.28-14.36,0-24.71-8t-14.86-21.93a80.08,80.08,0,0,1-3.48-24.81q0-14.55,3.69-25.42a44,44,0,0,1,14.86-20.8q10.14-7.69,25.11-7.69,14.76,0,23,10.25c.27.41.55.55.82.41a.84.84,0,0,0,.41-.82v-43.87A2.37,2.37,0,0,1,1012.84,1075.08Zm-.92,90.09q0-13.73-4.51-21.52-4.73-8-13.74-8-9.63,0-14.55,8-5.13,8-5.13,21.73,0,12.3,4.31,20.5,5.12,8.82,15.17,8.81,9.22,0,14.35-8.81Q1011.92,1178.29,1011.92,1165.17Z" transform="translate(-272.58 -282.75)"/><path d="M1131,1210.48a45,45,0,0,1-16.81-24.6,72.69,72.69,0,0,1-2.87-20.91,75.83,75.83,0,0,1,2.87-21.73,44,44,0,0,1,17-23.78q12.3-8.61,29.52-8.61,16.8,0,28.69,8.51t16.82,23.67a70.45,70.45,0,0,1,3.28,21.53,72.27,72.27,0,0,1-2.87,20.7q-4.51,16-16.71,25.12t-29.42,9.12Q1143.32,1219.5,1131,1210.48Zm41-19.89a22.83,22.83,0,0,0,6.77-11.27,59.27,59.27,0,0,0,1.64-14.35,55.7,55.7,0,0,0-1.64-14.56,22.79,22.79,0,0,0-7-10.86,19,19,0,0,0-23.06,0,21.85,21.85,0,0,0-6.66,10.86q-1.65,4.92-1.64,14.56,0,9.22,1.44,14.35a22.38,22.38,0,0,0,6.86,11.27,17.53,17.53,0,0,0,11.79,4.1A16.87,16.87,0,0,0,1172,1190.59Z" transform="translate(-272.58 -282.75)"/><path d="M1295.45,1113.21a2.37,2.37,0,0,1,1.74-.72h24a2.46,2.46,0,0,1,2.46,2.46v93.48q0,26.85-15.48,38.33t-39.87,11.48a140,140,0,0,1-16-1c-1.37-.14-2-1-2-2.67l.82-21.11c0-1.78,1-2.53,2.87-2.26a82.81,82.81,0,0,0,13.53,1.23q13.11,0,20.19-5.74t7.07-18.45c0-.41-.14-.64-.41-.71a.85.85,0,0,0-.82.3q-7.79,8.42-22.75,8.41a48,48,0,0,1-24.5-6.46q-11.18-6.45-15.89-20.81-3.08-9.42-3.07-24.39,0-16,3.69-26a41,41,0,0,1,14.55-20.09,38.93,38.93,0,0,1,23.78-7.58q15.78,0,24.19,9.43a.86.86,0,0,0,.82.31c.27-.07.41-.31.41-.72V1115A2.37,2.37,0,0,1,1295.45,1113.21Zm-.72,51.14a90.83,90.83,0,0,0-.41-9.84,32.87,32.87,0,0,0-1.43-6.56,18.42,18.42,0,0,0-6.15-8.91,16.71,16.71,0,0,0-10.66-3.39,16.39,16.39,0,0,0-10.46,3.39,19.7,19.7,0,0,0-6.35,8.91q-2.88,6.15-2.87,16.61,0,11.48,2.46,16.4a17.78,17.78,0,0,0,6.45,8.92,18.08,18.08,0,0,0,11,3.38,16.65,16.65,0,0,0,16.81-12.1Q1294.73,1175,1294.73,1164.35Z" transform="translate(-272.58 -282.75)"/><path d="M1498.19,1075.08a2.37,2.37,0,0,1,.72,1.74v20.09a2.46,2.46,0,0,1-2.46,2.46h-36.69a.9.9,0,0,0-1,1v115a2.46,2.46,0,0,1-2.46,2.46h-24a2.46,2.46,0,0,1-2.47-2.46v-115a.9.9,0,0,0-1-1h-35.67a2.34,2.34,0,0,1-1.74-.72,2.37,2.37,0,0,1-.72-1.74v-20.09a2.37,2.37,0,0,1,.72-1.74,2.34,2.34,0,0,1,1.74-.72h103.32A2.37,2.37,0,0,1,1498.19,1075.08Z" transform="translate(-272.58 -282.75)"/><path d="M1591,1171.73a2.38,2.38,0,0,1-2.66,2.46H1525c-.82,0-1.09.35-.82,1a36.37,36.37,0,0,0,2.26,8.2q5.32,11.47,21.73,11.48,13.11-.21,20.7-10.66a2.28,2.28,0,0,1,1.85-1.23,2.21,2.21,0,0,1,1.43.82l14.76,14.55a2.83,2.83,0,0,1,1,1.85,4.36,4.36,0,0,1-.82,1.64,44.79,44.79,0,0,1-17.43,13,58.26,58.26,0,0,1-23.37,4.61q-17.62,0-29.82-8a44.32,44.32,0,0,1-17.53-22.34q-4.31-10.25-4.31-26.86a59,59,0,0,1,3.08-19.88,45.06,45.06,0,0,1,16.5-23.17q11.79-8.61,28-8.61,20.51,0,32.91,11.89t15.06,31.78A87.64,87.64,0,0,1,1591,1171.73Zm-65.6-24a49.5,49.5,0,0,0-1.43,6.56.9.9,0,0,0,1,1h35.47c.82,0,1.09-.34.82-1-.69-4-1-5.88-1-5.74a17.7,17.7,0,0,0-6.45-9.53,18.7,18.7,0,0,0-11.38-3.39Q1529.52,1135.65,1525.41,1147.75Z" transform="translate(-272.58 -282.75)"/><path d="M1612.43,1217.14a2.36,2.36,0,0,1-.71-1.74V1076.82a2.44,2.44,0,0,1,2.46-2.46h24a2.46,2.46,0,0,1,2.46,2.46V1215.4a2.46,2.46,0,0,1-2.46,2.46h-24A2.38,2.38,0,0,1,1612.43,1217.14Z" transform="translate(-272.58 -282.75)"/><path d="M1758.62,1171.73a2.39,2.39,0,0,1-2.67,2.46h-63.34c-.82,0-1.1.35-.82,1a36.87,36.87,0,0,0,2.25,8.2q5.34,11.47,21.73,11.48,13.13-.21,20.71-10.66a1.85,1.85,0,0,1,3.28-.41l14.76,14.55a2.85,2.85,0,0,1,1,1.85,4.2,4.2,0,0,1-.82,1.64,44.83,44.83,0,0,1-17.42,13,58.33,58.33,0,0,1-23.37,4.61q-17.64,0-29.83-8a44.42,44.42,0,0,1-17.53-22.34q-4.3-10.25-4.3-26.86a59,59,0,0,1,3.07-19.88,45,45,0,0,1,16.51-23.17q11.78-8.61,28-8.61,20.49,0,32.9,11.89t15.07,31.78A88.4,88.4,0,0,1,1758.62,1171.73Zm-65.6-24a47.81,47.81,0,0,0-1.44,6.56.9.9,0,0,0,1,1h35.46c.82,0,1.1-.34.82-1-.68-4-1-5.88-1-5.74a17.72,17.72,0,0,0-6.46-9.53,18.68,18.68,0,0,0-11.38-3.39Q1697.12,1135.65,1693,1147.75Z" transform="translate(-272.58 -282.75)"/><path d="M1921.18,1120.48q9,9.64,9,27.06v67.86a2.46,2.46,0,0,1-2.46,2.46h-24a2.44,2.44,0,0,1-2.46-2.46v-61.5q0-8.4-4.31-13.33a14.5,14.5,0,0,0-11.48-4.92,15.11,15.11,0,0,0-11.68,4.92q-4.51,4.92-4.51,13.12v61.71a2.46,2.46,0,0,1-2.46,2.46h-23.78a2.44,2.44,0,0,1-2.46-2.46v-61.5q0-8.2-4.51-13.22a15,15,0,0,0-11.69-5,16,16,0,0,0-11,3.9q-4.41,3.9-5.22,10.86v65a2.46,2.46,0,0,1-2.46,2.46h-24a2.46,2.46,0,0,1-2.46-2.46V1115a2.46,2.46,0,0,1,2.46-2.46h24a2.46,2.46,0,0,1,2.46,2.46v8a.81.81,0,0,0,.41.82c.27.14.54,0,.82-.41q8.4-12.49,26-12.5a36.14,36.14,0,0,1,17.94,4.3,28.93,28.93,0,0,1,11.79,12.3c.41.82.88.82,1.43,0a29.46,29.46,0,0,1,12.2-12.5,36.25,36.25,0,0,1,17.32-4.1Q1912.16,1110.85,1921.18,1120.48Z" transform="translate(-272.58 -282.75)"/><path d="M2020.75,1115.46a39.23,39.23,0,0,1,16.29,12.61,29.47,29.47,0,0,1,5.85,17.83v69.5a2.46,2.46,0,0,1-2.46,2.46h-24a2.46,2.46,0,0,1-2.46-2.46v-6.77a.84.84,0,0,0-.41-.82c-.27-.13-.55,0-.82.41q-8.61,11.28-27.67,11.28-16,0-25.83-7.79t-9.84-23q0-15.78,11.07-24.5t31.57-8.71H2013a.9.9,0,0,0,1-1V1150q0-6.76-4.1-10.55t-12.3-3.8a22.19,22.19,0,0,0-10.56,2.26,10.52,10.52,0,0,0-5.43,6.35c-.41,1.51-1.3,2.19-2.66,2l-24.81-3.28c-1.64-.27-2.39-.88-2.25-1.84a27.26,27.26,0,0,1,6.86-15.58,40,40,0,0,1,16-10.87,60.72,60.72,0,0,1,22.25-3.89A58.45,58.45,0,0,1,2020.75,1115.46Zm-12.92,77.8a14.6,14.6,0,0,0,6.15-12.1v-7.38a.9.9,0,0,0-1-1H1998.2q-9.23,0-14.46,3.48a11.18,11.18,0,0,0-5.22,9.84,10.64,10.64,0,0,0,3.89,8.72q3.9,3.18,10.46,3.17A23.88,23.88,0,0,0,2007.83,1193.26Z" transform="translate(-272.58 -282.75)"/><path d="M2131.71,1113.92c1.1.55,1.51,1.58,1.23,3.08l-4.3,23.37q-.21,2.46-2.87,1.43a22.82,22.82,0,0,0-7.18-1,34.62,34.62,0,0,0-4.51.41,20.12,20.12,0,0,0-12.5,5.43q-5.13,4.82-5.13,12.81v56a2.44,2.44,0,0,1-2.46,2.46h-24a2.34,2.34,0,0,1-1.74-.72,2.37,2.37,0,0,1-.72-1.74V1115a2.37,2.37,0,0,1,.72-1.74,2.34,2.34,0,0,1,1.74-.72h24a2.44,2.44,0,0,1,2.46,2.46v7.79a.84.84,0,0,0,.41.82.41.41,0,0,0,.62-.21q8.4-12.3,22.55-12.3Q2127.41,1111.05,2131.71,1113.92Z" transform="translate(-272.58 -282.75)"/><path d="M2149.94,1217.14a2.37,2.37,0,0,1-.72-1.74V1076.82a2.37,2.37,0,0,1,.72-1.74,2.34,2.34,0,0,1,1.74-.72h24a2.44,2.44,0,0,1,2.46,2.46v69.08c0,.41.14.65.41.72a.83.83,0,0,0,.82-.31l27.88-32.39a4.33,4.33,0,0,1,3.08-1.43h27.26c1.37,0,2,.48,2,1.43a3.47,3.47,0,0,1-.61,1.64l-26,33a1.85,1.85,0,0,0-.2,1.43l30.54,65a3.07,3.07,0,0,1,.41,1.23c0,1.09-.75,1.64-2.25,1.64h-25.22a2.92,2.92,0,0,1-2.87-1.85l-20.29-48a1,1,0,0,0-.72-.51.6.6,0,0,0-.72.31l-13.12,16.4a3.24,3.24,0,0,0-.41,1.23v29.93a2.44,2.44,0,0,1-2.46,2.46h-24A2.34,2.34,0,0,1,2149.94,1217.14Z" transform="translate(-272.58 -282.75)"/><path d="M674.25,1434v-89H728v10.61H686.49v27.92h39.12v10.61H686.49V1434Z" transform="translate(-272.58 -282.75)"/><path d="M825.11,1345l-33.72,47.49V1434H779v-41.56L745.31,1345h14.16l25.8,36.76,25.8-36.76Z" transform="translate(-272.58 -282.75)"/><path d="M845.1,1434v-89h12.36v78.19h41V1434Z" transform="translate(-272.58 -282.75)"/><path d="M990.51,1434H975l-41.63-41.93V1434H921v-89h12.37v40.55L973.23,1345h15.24l-42.73,43.07Z" transform="translate(-272.58 -282.75)"/><path d="M1010.93,1434v-89h55v10.48h-42.84v28h40.44v10.61h-40.44v29.43h42.84V1434Z" transform="translate(-272.58 -282.75)"/><path d="M1101.86,1432.26a38.63,38.63,0,0,1-14.09-8.21l4.43-9.6a40.91,40.91,0,0,0,12.9,7.65,45.13,45.13,0,0,0,14.94,2.33q9.48,0,14.64-3.72a12.26,12.26,0,0,0,5.17-10.55,9.39,9.39,0,0,0-4.81-8.65q-4.8-2.85-15.36-5.37a89.24,89.24,0,0,1-16.56-5.18,24.91,24.91,0,0,1-10.14-7.9q-3.66-5-3.66-12.69a24.44,24.44,0,0,1,3.91-13.77,25.88,25.88,0,0,1,11.09-9.28A39.2,39.2,0,0,1,1121,1344a49,49,0,0,1,16.74,2.84,32.87,32.87,0,0,1,12.9,8.15l-4.32,9.6a43.11,43.11,0,0,0-12-7.52,35.29,35.29,0,0,0-13.15-2.46q-9.12,0-14.34,4a13.14,13.14,0,0,0-5.22,11q0,6.06,4.56,9.16t14.65,5.62a117.53,117.53,0,0,1,17.09,5.24,26.42,26.42,0,0,1,10.45,7.45q3.89,4.74,3.89,12.32a23.77,23.77,0,0,1-3.89,13.52,25.12,25.12,0,0,1-11.17,9,42.87,42.87,0,0,1-17.22,3.16A56.17,56.17,0,0,1,1101.86,1432.26Z" transform="translate(-272.58 -282.75)"/><path d="M1247.39,1434h-15.48l-41.64-41.93V1434h-12.36v-89h12.36v40.55l39.84-40.55h15.24l-42.72,43.07Z" transform="translate(-272.58 -282.75)"/><path d="M1275.42,1429.48a36.33,36.33,0,0,1-13.62-15.79q-4.8-10.23-4.8-24.12t4.74-24.32a35.5,35.5,0,0,1,13.62-15.79q8.88-5.49,20.88-5.49t21,5.49a35.5,35.5,0,0,1,13.62,15.79q4.74,10.3,4.74,24.19t-4.74,24.19a35.76,35.76,0,0,1-13.62,15.85q-8.88,5.57-21,5.56T1275.42,1429.48Zm40.62-14.14q7.08-9.1,7.08-25.9t-7-25.83q-7-9-19.86-9-12.6,0-19.62,9t-7,25.83q0,16.8,7,25.9t19.62,9.09Q1309,1424.43,1316,1415.34Z" transform="translate(-272.58 -282.75)"/><path d="M1433.53,1345h9.84v89h-11.16l.12-64.42-25.2,50.15h-8.4l-25.32-49.52.12,63.79h-11.16v-89h10l30.72,61.64Z" transform="translate(-272.58 -282.75)"/><path d="M1545,1345h9.83v89h-11.16l.12-64.42-25.2,50.15h-8.39l-25.33-49.52L1485,1434h-11.17v-89h10l30.72,61.64Z" transform="translate(-272.58 -282.75)"/><path d="M1593.45,1425.82q-8.76-9.21-8.76-27.16V1345h12.24v54.57q0,12.26,5.58,18.57t16.62,6.31q10.92,0,16.56-6.31t5.64-18.57V1345h12.24v53.68q0,17.82-8.82,27.1t-25.62,9.28Q1602.21,1435,1593.45,1425.82Z" transform="translate(-272.58 -282.75)"/><path d="M1741.24,1345h11.65v89h-9.49l-48.35-67.2V1434H1683.4v-89h9.37l48.47,67.33Z" transform="translate(-272.58 -282.75)"/><path d="M1783.22,1434v-89h55v10.48h-42.84v28h40.44v10.61h-40.44v29.43h42.84V1434Z" transform="translate(-272.58 -282.75)"/></svg>