<svg id="ORIGINAL_2_copy_2" data-name="ORIGINAL 2 copy 2" xmlns="http://www.w3.org/2000/svg" viewBox="0 0 2683.43 647.5"><defs><style>.cls-1{fill:#e40017;}.cls-2{fill:#ffcd00;}</style></defs><title>VT-logo-02-horisontal-RGB</title><path class="cls-1" d="M213.83,214.08V573.55c0,9.48.47,24.18,1.39,33.42,14.15,142.94,135.12,254.61,282.24,254.61S765.54,749.91,779.7,607c.92-9.24,1.39-23.94,1.39-33.42V214.08Z" transform="translate(-213.83 -214.08)"/><path class="cls-2" d="M505,684.19a.27.27,0,0,1,.21-.32.29.29,0,0,1,.33.18c9,28.16,25.55,54.08,46.2,76.59,8.5-3.46,17.63-6.68,26.9-10.2C543.6,719.76,513.72,679.09,505,631.92a.26.26,0,0,1,.21-.32.27.27,0,0,1,.33.18c14.35,45,48.17,84.37,86.95,113.13a166.8,166.8,0,0,0,30.84-16.55c-51.67-30.85-106.07-84.46-118.33-151a.28.28,0,0,1,.21-.33.29.29,0,0,1,.33.18c19.61,61.58,75.63,112.49,131,140.31a95.86,95.86,0,0,0,20.3-28.47c-59-24.77-136.82-86.76-151.79-168a.28.28,0,0,1,.21-.33.29.29,0,0,1,.33.18c22.76,71.46,94.54,128.55,157.37,151.87,3.78-13,5.93-28.2,5.93-46.25C593.07,603.34,505,514.21,505,424.37h0v-56H489.91v56.06c0,88-94.11,180.77-163.85,202.1,0,18.05,2.15,33.28,5.93,46.25,62.83-23.32,134.61-80.41,157.37-151.87a.29.29,0,0,1,.33-.18.28.28,0,0,1,.21.33c-15,81.26-92.83,143.25-151.79,168a95.86,95.86,0,0,0,20.3,28.47c55.32-27.82,111.34-78.73,131-140.31a.29.29,0,0,1,.33-.18.28.28,0,0,1,.21.33c-12.26,66.52-66.66,120.13-118.33,151a166.8,166.8,0,0,0,30.84,16.55c38.78-28.76,72.6-68.09,86.95-113.13a.27.27,0,0,1,.33-.18.26.26,0,0,1,.21.32c-8.69,47.17-38.57,87.84-73.64,118.51,9.27,3.52,18.4,6.75,26.9,10.21,20.65-22.51,37.23-48.43,46.2-76.59a.29.29,0,0,1,.33-.18.27.27,0,0,1,.21.32c-5.46,29.67-19.31,56.76-37.56,80.42,21.77,10.11,37.56,23.43,37.57,50.73v0H505v0c0-27.3,15.8-40.62,37.57-50.74C524.34,741,510.49,713.86,505,684.19Z" transform="translate(-213.83 -214.08)"/><ellipse class="cls-2" cx="675.06" cy="384.37" rx="16.49" ry="16.76" transform="matrix(0.02, -1, 1, 0.02, 65.13, 838.53)"/><path class="cls-2" d="M728.14,470.7c-26,62.2-138.41,63.62-158.27-8.44,10.25,17.6,29.54,31.66,58.58,32.17,57.61,1,105.16-46.15,106.19-105.33q.08-4.22-.17-8.35c-.11-2.48-.35-4.95-.69-7.42a108.6,108.6,0,0,0-5-21.63c-6.32-21.11-15.15-42.57-12-65.61a13.16,13.16,0,1,0,5-25.42c-6.87-.12-12.91,3.63-16.9,11.91-5.79,12-1.69,29.82,2.86,42.85-18.71-21.23-36.35-35.29-75.48-35.29-32.18,0-92.58,9.72-105.48-24.29A40.57,40.57,0,0,0,520.82,276c-.84,28.69,32.47,32.76,34.2,32.41-38.61,37.18,7.77,88.4,45.37,58.45,3.3-2.63,7.25-7,8.36-11a25.43,25.43,0,0,1-33.56-28.29c4.4-21,26.28-35.85,63.59-35.58-41.67,8.52-37.86,46.71-28.27,49.18,0,0-.24-2.14-.22-3.23.29-16.12,17.58-31.57,42.56-31.57,29.84,0,48.61,23.06,55.4,35.49a44.76,44.76,0,0,0-71.74,34.93c-.16,8.91,4.22,24.82,20.16,26.82-18.43-24.78-1.5-47.23,18.74-47.55,21.28-.34,37.28,17.92,37.28,39.2,0,34.09-35.11,57.72-71.78,57.72-15.4,0-31.28-4.74-41.41-13.3a24.92,24.92,0,0,0,17.83-23.46c.24-13.75-10.71-25.34-24.47-25.34-30.54,0-37.69,32.22-37.69,48,0,117.73,162,131.91,152.19,181.9,7.56-4.38,9.66-15,9.08-22.47-1.94-25.54-47.41-50.37-57.16-56.95C671.35,545.62,744.07,527.06,728.14,470.7Z" transform="translate(-213.83 -214.08)"/><path class="cls-2" d="M271.77,260.71c21.48-1.83,28.49,32.18-1.25,56.5a10.51,10.51,0,0,1-6.44,2.66c4.56-3.43,14.06-21.34,11.83-33.94-8.64,1.2-13.92-3.33-15.48-9.65C258.55,268.71,264.29,261.35,271.77,260.71Z" transform="translate(-213.83 -214.08)"/><path class="cls-2" d="M474.21,276a40.57,40.57,0,0,0-5.89-20.17c-12.9,34-73.29,24.29-105.47,24.29-60.75,0-103.49,49.79-102.45,109S309,495.43,366.59,494.43c27.73-.49,46.57-13.33,57.13-29.82h0c-18,66-127.44,69.46-155.35,6.09C257,481,261.22,501,272.16,506.13c-5.77,25.62,36.39,41.68,59,33.51-16,8-69.18,49.62-43.51,81.14C277.74,570,440.1,556.55,440.1,441.35c0-10.89-3.57-50.47-37.93-50.47-13.76,0-24.71,11.59-24.47,25.34a24.93,24.93,0,0,0,17.83,23.46c-10.12,9-26,13.3-41.41,13.3-26.26,0-74.19-14.34-74.19-61.45,0-20.43,15.91-37.27,36.34-37.63a36.93,36.93,0,0,1,28.32,12.46,18.31,18.31,0,1,0-10.34,33.19c16.58-.29,18.44-18.1,18.65-17.2a43,43,0,0,0-43-50.75,42.68,42.68,0,0,0-20.26,5.47c18.47-28.47,42.81-30.53,52.54-30.7,25-.44,42.28,15.45,42.56,31.57a18.72,18.72,0,0,1-.41,4.3c11.47-6.57,10-43.11-28-50,33.72-.83,59,13.7,63.53,35.3a25.73,25.73,0,0,1,.37,4.33,25.44,25.44,0,0,1-33.93,24c1.12,4,5.07,8.39,8.37,11,37.6,29.95,84-21.27,45.37-58.45C441.74,308.78,475.06,304.71,474.21,276Z" transform="translate(-213.83 -214.08)"/><path d="M968.55,499.64,926.32,361.06l-.21-.82c0-1.37.75-2.05,2.26-2.05H954.2a2.7,2.7,0,0,1,2.87,2.05l27.26,100c.14.41.34.61.62.61s.48-.2.61-.61l26.86-100a2.69,2.69,0,0,1,2.87-2.05h25.21a2.16,2.16,0,0,1,1.85.82,2.1,2.1,0,0,1,.2,2.05L999.71,499.64a2.58,2.58,0,0,1-2.67,2.05H971.21A2.58,2.58,0,0,1,968.55,499.64Z" transform="translate(-213.83 -214.08)"/><path d="M1144.21,455.56a2.39,2.39,0,0,1-2.66,2.46H1078.2c-.82,0-1.09.34-.82,1a36.51,36.51,0,0,0,2.26,8.2q5.33,11.47,21.73,11.48a24.75,24.75,0,0,0,20.7-10.66,2.28,2.28,0,0,1,1.85-1.23,2.23,2.23,0,0,1,1.43.82l14.76,14.55a2.87,2.87,0,0,1,1,1.85,4.36,4.36,0,0,1-.82,1.64,44.67,44.67,0,0,1-17.43,13,58.17,58.17,0,0,1-23.37,4.62q-17.62,0-29.83-8A44.39,44.39,0,0,1,1052.17,473q-4.31-10.26-4.31-26.86a59,59,0,0,1,3.08-19.88,45,45,0,0,1,16.5-23.17q11.79-8.61,28-8.61,20.5,0,32.9,11.89t15.07,31.78A88.4,88.4,0,0,1,1144.21,455.56Zm-65.6-24a47.62,47.62,0,0,0-1.43,6.56.9.9,0,0,0,1,1h35.47c.82,0,1.09-.34.82-1q-1-6-1-5.74a17.72,17.72,0,0,0-6.46-9.54,18.71,18.71,0,0,0-11.37-3.38Q1082.71,419.48,1078.61,431.58Z" transform="translate(-213.83 -214.08)"/><path d="M1181.62,499.23q-10.24-3.9-15.89-10.87a24.4,24.4,0,0,1-5.63-15.78v-2.05a2.34,2.34,0,0,1,.72-1.75,2.37,2.37,0,0,1,1.74-.71h22.75a2.44,2.44,0,0,1,1.75.71,2.41,2.41,0,0,1,.71,1.75v.2q0,4.51,5,7.69t12.61,3.18q7,0,11.28-2.77c2.87-1.85,4.3-4.13,4.3-6.87a5.9,5.9,0,0,0-3.69-5.53,62.84,62.84,0,0,0-12.09-3.9,122.09,122.09,0,0,1-15.17-4.71q-13.12-4.51-20.91-11.07t-7.79-18.86q0-15.18,11.78-24.09t31.27-8.92q13.11,0,23,4.2a35.38,35.38,0,0,1,15.27,11.79,28.86,28.86,0,0,1,5.43,17.22,2.34,2.34,0,0,1-.72,1.74,2.37,2.37,0,0,1-1.74.72h-21.93a2.38,2.38,0,0,1-1.75-.72,2.33,2.33,0,0,1-.71-1.74q0-4.5-4.62-7.58t-12.19-3.08a22.13,22.13,0,0,0-11.07,2.46q-4.3,2.46-4.31,6.77,0,4.09,4.2,6.15t14,4.3c1.5.41,3.21.86,5.12,1.33s4,1.06,6.15,1.75q14.57,4.31,23,11.07t8.41,19.68q0,15.17-12,23.67t-32.29,8.51Q1191.87,503.12,1181.62,499.23Z" transform="translate(-213.83 -214.08)"/><path d="M1329.18,418.76a2.37,2.37,0,0,1-1.74.72h-19.68a.91.91,0,0,0-1,1V464q0,6.76,2.77,10t8.92,3.28h6.76a2.44,2.44,0,0,1,2.46,2.46v19.48a2.53,2.53,0,0,1-2.46,2.66q-8.61.41-12.3.41-17,0-25.42-5.64t-8.61-21.21V420.51a.9.9,0,0,0-1-1h-11.69a2.37,2.37,0,0,1-1.74-.72,2.34,2.34,0,0,1-.72-1.74V398.78a2.44,2.44,0,0,1,2.46-2.46h11.69a.9.9,0,0,0,1-1V370.9a2.44,2.44,0,0,1,2.46-2.46h23a2.42,2.42,0,0,1,2.46,2.46v24.39a.91.91,0,0,0,1,1h19.68a2.44,2.44,0,0,1,2.46,2.46V417A2.34,2.34,0,0,1,1329.18,418.76Z" transform="translate(-213.83 -214.08)"/><path d="M1412.74,396.83a2.4,2.4,0,0,1,.71,1.74v19.48a2.44,2.44,0,0,1-2.46,2.46h-19.88a.9.9,0,0,0-1,1v77.7a2.44,2.44,0,0,1-2.46,2.46h-24a2.34,2.34,0,0,1-1.74-.72,2.37,2.37,0,0,1-.72-1.74v-77.7a.9.9,0,0,0-1-1h-12.09a2.34,2.34,0,0,1-1.74-.72,2.37,2.37,0,0,1-.72-1.74V398.57a2.37,2.37,0,0,1,.72-1.74,2.34,2.34,0,0,1,1.74-.72h12.09a.9.9,0,0,0,1-1v-4.51q0-12.72,3.89-19.79t12.61-10q8.71-3,24.09-2.56h7.79a2.44,2.44,0,0,1,2.46,2.46v16.6a2.34,2.34,0,0,1-.72,1.74,2.37,2.37,0,0,1-1.74.72h-6.77q-7.17.21-9.94,3t-2.77,10.15v2.26a.9.9,0,0,0,1,1H1411A2.38,2.38,0,0,1,1412.74,396.83Z" transform="translate(-213.83 -214.08)"/><path d="M1447.28,494.31a45.07,45.07,0,0,1-16.81-24.6,72.79,72.79,0,0,1-2.87-20.91,75.79,75.79,0,0,1,2.87-21.73,44,44,0,0,1,17-23.78q12.3-8.61,29.52-8.61,16.82,0,28.7,8.5t16.81,23.68a70.14,70.14,0,0,1,3.28,21.53,71.92,71.92,0,0,1-2.87,20.7q-4.5,16-16.7,25.11t-29.42,9.13Q1459.58,503.33,1447.28,494.31Zm41-19.89a22.74,22.74,0,0,0,6.76-11.27,58.84,58.84,0,0,0,1.64-14.35,55.28,55.28,0,0,0-1.64-14.56,22.66,22.66,0,0,0-7-10.86,19,19,0,0,0-23.06,0,21.81,21.81,0,0,0-6.66,10.86q-1.65,4.92-1.64,14.56,0,9.22,1.43,14.35a22.46,22.46,0,0,0,6.87,11.27,17.53,17.53,0,0,0,11.79,4.1A16.87,16.87,0,0,0,1488.28,474.42Z" transform="translate(-213.83 -214.08)"/><path d="M1547.73,501a2.37,2.37,0,0,1-.72-1.74V360.65a2.44,2.44,0,0,1,2.46-2.46h24a2.42,2.42,0,0,1,2.46,2.46V499.23a2.44,2.44,0,0,1-2.46,2.46h-24A2.34,2.34,0,0,1,1547.73,501Z" transform="translate(-213.83 -214.08)"/><path d="M1666.38,358.9a2.4,2.4,0,0,1,1.74-.71h24a2.44,2.44,0,0,1,2.46,2.46V499.23a2.46,2.46,0,0,1-2.46,2.46h-24a2.46,2.46,0,0,1-2.46-2.46v-6.77c0-.41-.14-.65-.41-.72a.88.88,0,0,0-.82.31q-8.61,11.28-23.57,11.28-14.35,0-24.71-8t-14.86-21.93a80.08,80.08,0,0,1-3.48-24.81q0-14.55,3.69-25.42a44.07,44.07,0,0,1,14.86-20.81q10.14-7.68,25.11-7.68,14.76,0,23,10.25c.27.41.55.54.82.41a.84.84,0,0,0,.41-.82V360.65A2.38,2.38,0,0,1,1666.38,358.9Zm-.92,90.1q0-13.72-4.51-21.52-4.73-8-13.74-8-9.63,0-14.55,8-5.13,8-5.13,21.73,0,12.3,4.31,20.5,5.12,8.81,15.17,8.81,9.23,0,14.35-8.81Q1665.46,462.12,1665.46,449Z" transform="translate(-213.83 -214.08)"/><path d="M1784.56,494.31a45.07,45.07,0,0,1-16.81-24.6,72.79,72.79,0,0,1-2.87-20.91,75.79,75.79,0,0,1,2.87-21.73,44,44,0,0,1,17-23.78q12.3-8.61,29.52-8.61,16.82,0,28.7,8.5t16.81,23.68a70.14,70.14,0,0,1,3.28,21.53,71.92,71.92,0,0,1-2.87,20.7q-4.5,16-16.7,25.11t-29.42,9.13Q1796.86,503.33,1784.56,494.31Zm41-19.89a22.74,22.74,0,0,0,6.76-11.27A58.84,58.84,0,0,0,1834,448.8a55.28,55.28,0,0,0-1.64-14.56,22.66,22.66,0,0,0-7-10.86,19,19,0,0,0-23.06,0,21.81,21.81,0,0,0-6.66,10.86q-1.65,4.92-1.64,14.56,0,9.22,1.43,14.35a22.46,22.46,0,0,0,6.87,11.27,17.53,17.53,0,0,0,11.79,4.1A16.87,16.87,0,0,0,1825.56,474.42Z" transform="translate(-213.83 -214.08)"/><path d="M1949,397a2.4,2.4,0,0,1,1.74-.71h24a2.44,2.44,0,0,1,2.46,2.46v93.48q0,26.85-15.48,38.33t-39.87,11.48a140,140,0,0,1-16-1c-1.37-.14-2-1-2-2.67l.82-21.11c0-1.78,1-2.53,2.87-2.26a82.81,82.81,0,0,0,13.53,1.23q13.11,0,20.19-5.74t7.07-18.45c0-.41-.14-.65-.41-.72a.88.88,0,0,0-.82.31q-7.79,8.42-22.75,8.41a48.14,48.14,0,0,1-24.5-6.46q-11.18-6.46-15.89-20.81-3.08-9.42-3.07-24.39,0-16,3.69-26a40.91,40.91,0,0,1,14.55-20.09,38.93,38.93,0,0,1,23.78-7.58q15.78,0,24.19,9.43a.85.85,0,0,0,.82.3c.27-.06.41-.3.41-.71v-4.92A2.38,2.38,0,0,1,1949,397Zm-.72,51.15a90.83,90.83,0,0,0-.41-9.84,32.87,32.87,0,0,0-1.43-6.56,18.5,18.5,0,0,0-6.15-8.92,16.76,16.76,0,0,0-10.66-3.38,16.44,16.44,0,0,0-10.46,3.38,19.78,19.78,0,0,0-6.35,8.92q-2.88,6.15-2.87,16.61,0,11.48,2.46,16.4a17.71,17.71,0,0,0,6.45,8.91,18,18,0,0,0,11,3.39,16.68,16.68,0,0,0,16.81-12.1Q1948.27,458.84,1948.27,448.18Z" transform="translate(-213.83 -214.08)"/><path d="M2151.73,358.9a2.38,2.38,0,0,1,.72,1.75v20.09a2.46,2.46,0,0,1-2.46,2.46h-36.7a.9.9,0,0,0-1,1v115a2.46,2.46,0,0,1-2.46,2.46h-24a2.46,2.46,0,0,1-2.46-2.46v-115a.9.9,0,0,0-1-1h-35.67a2.34,2.34,0,0,1-1.74-.72,2.37,2.37,0,0,1-.72-1.74V360.65a2.44,2.44,0,0,1,2.46-2.46H2150A2.4,2.4,0,0,1,2151.73,358.9Z" transform="translate(-213.83 -214.08)"/><path d="M2244.55,455.56a2.38,2.38,0,0,1-2.66,2.46h-63.35c-.82,0-1.09.34-.82,1a36.51,36.51,0,0,0,2.26,8.2q5.33,11.47,21.73,11.48,13.11-.21,20.7-10.66a2.28,2.28,0,0,1,1.85-1.23,2.21,2.21,0,0,1,1.43.82l14.76,14.55a2.83,2.83,0,0,1,1,1.85,4.36,4.36,0,0,1-.82,1.64,44.67,44.67,0,0,1-17.43,13,58.1,58.1,0,0,1-23.37,4.62q-17.62,0-29.82-8A44.36,44.36,0,0,1,2152.51,473q-4.31-10.26-4.31-26.86a59,59,0,0,1,3.08-19.88,45,45,0,0,1,16.5-23.17q11.79-8.61,28-8.61,20.5,0,32.91,11.89t15.06,31.78A87.64,87.64,0,0,1,2244.55,455.56Zm-65.6-24a49.14,49.14,0,0,0-1.43,6.56.9.9,0,0,0,1,1H2214c.82,0,1.09-.34.82-1q-1-6-1-5.74a17.76,17.76,0,0,0-6.45-9.54,18.77,18.77,0,0,0-11.38-3.38Q2183.06,419.48,2179,431.58Z" transform="translate(-213.83 -214.08)"/><path d="M2266,501a2.36,2.36,0,0,1-.71-1.74V360.65a2.37,2.37,0,0,1,.71-1.75,2.41,2.41,0,0,1,1.75-.71h24a2.44,2.44,0,0,1,2.46,2.46V499.23a2.46,2.46,0,0,1-2.46,2.46h-24A2.38,2.38,0,0,1,2266,501Z" transform="translate(-213.83 -214.08)"/><path d="M2412.16,455.56a2.39,2.39,0,0,1-2.67,2.46h-63.34c-.82,0-1.1.34-.82,1a37,37,0,0,0,2.25,8.2q5.33,11.47,21.73,11.48,13.13-.21,20.71-10.66a1.85,1.85,0,0,1,3.28-.41l14.76,14.55a2.85,2.85,0,0,1,1,1.85,4.2,4.2,0,0,1-.82,1.64,44.71,44.71,0,0,1-17.42,13,58.17,58.17,0,0,1-23.37,4.62q-17.64,0-29.83-8A44.41,44.41,0,0,1,2320.11,473q-4.31-10.26-4.3-26.86a59,59,0,0,1,3.07-19.88,45,45,0,0,1,16.5-23.17q11.79-8.61,28-8.61,20.49,0,32.9,11.89t15.07,31.78A88.4,88.4,0,0,1,2412.16,455.56Zm-65.6-24a47.47,47.47,0,0,0-1.44,6.56.9.9,0,0,0,1,1h35.46c.82,0,1.09-.34.82-1q-1-6-1-5.74a17.78,17.78,0,0,0-6.46-9.54,18.77,18.77,0,0,0-11.38-3.38Q2350.65,419.48,2346.56,431.58Z" transform="translate(-213.83 -214.08)"/><path d="M2574.72,404.31q9,9.65,9,27.06v67.86a2.46,2.46,0,0,1-2.46,2.46h-24a2.46,2.46,0,0,1-2.46-2.46v-61.5q0-8.42-4.3-13.33a14.5,14.5,0,0,0-11.48-4.92,15.13,15.13,0,0,0-11.69,4.92q-4.5,4.92-4.5,13.12v61.71a2.41,2.41,0,0,1-.72,1.74,2.37,2.37,0,0,1-1.74.72h-23.79a2.46,2.46,0,0,1-2.46-2.46v-61.5q0-8.21-4.5-13.23a15,15,0,0,0-11.69-5,16,16,0,0,0-11,3.9c-2.94,2.59-4.68,6.22-5.22,10.86v65a2.46,2.46,0,0,1-2.46,2.46h-24a2.34,2.34,0,0,1-1.74-.72,2.37,2.37,0,0,1-.72-1.74V398.78a2.44,2.44,0,0,1,2.46-2.46h24a2.44,2.44,0,0,1,2.46,2.46v8a.82.82,0,0,0,.4.82c.28.14.55,0,.82-.41q8.41-12.49,26-12.5A36.14,36.14,0,0,1,2507,399a28.85,28.85,0,0,1,11.78,12.3q.61,1.23,1.44,0a29.46,29.46,0,0,1,12.2-12.5,36.11,36.11,0,0,1,17.32-4.1Q2565.7,394.68,2574.72,404.31Z" transform="translate(-213.83 -214.08)"/><path d="M2674.29,399.29a39.15,39.15,0,0,1,16.29,12.61,29.47,29.47,0,0,1,5.85,17.83v69.5a2.46,2.46,0,0,1-2.46,2.46h-24a2.46,2.46,0,0,1-2.46-2.46v-6.77a.84.84,0,0,0-.41-.82c-.27-.13-.55,0-.82.41q-8.61,11.28-27.67,11.28-16,0-25.83-7.79t-9.84-23q0-15.79,11.07-24.5t31.57-8.71h20.91a.9.9,0,0,0,1-1v-4.51q0-6.76-4.1-10.56t-12.3-3.79a22.08,22.08,0,0,0-10.56,2.26,10.52,10.52,0,0,0-5.43,6.35c-.41,1.51-1.3,2.19-2.66,2.05l-24.81-3.28c-1.64-.27-2.39-.89-2.25-1.84a27.23,27.23,0,0,1,6.86-15.58,40,40,0,0,1,16-10.87,60.72,60.72,0,0,1,22.25-3.89A58.29,58.29,0,0,1,2674.29,399.29Zm-12.92,77.8a14.61,14.61,0,0,0,6.15-12.1v-7.38a.9.9,0,0,0-1-1h-14.76q-9.22,0-14.46,3.48a11.18,11.18,0,0,0-5.22,9.84,10.61,10.61,0,0,0,3.89,8.71q3.9,3.18,10.46,3.18A23.88,23.88,0,0,0,2661.37,477.09Z" transform="translate(-213.83 -214.08)"/><path d="M2785.25,397.75c1.1.55,1.51,1.57,1.23,3.08l-4.3,23.37q-.21,2.46-2.87,1.43a22.82,22.82,0,0,0-7.18-1,32.93,32.93,0,0,0-4.51.41,20.12,20.12,0,0,0-12.5,5.43q-5.13,4.82-5.13,12.81v56a2.44,2.44,0,0,1-2.46,2.46h-24a2.34,2.34,0,0,1-1.74-.72,2.37,2.37,0,0,1-.72-1.74V398.78a2.44,2.44,0,0,1,2.46-2.46h24a2.42,2.42,0,0,1,2.46,2.46v7.79a.84.84,0,0,0,.41.82.41.41,0,0,0,.62-.21q8.4-12.3,22.55-12.3Q2781,394.88,2785.25,397.75Z" transform="translate(-213.83 -214.08)"/><path d="M2803.48,501a2.37,2.37,0,0,1-.72-1.74V360.65a2.44,2.44,0,0,1,2.46-2.46h24a2.42,2.42,0,0,1,2.46,2.46v69.08c0,.41.14.65.41.72a.83.83,0,0,0,.82-.31l27.88-32.39a4.33,4.33,0,0,1,3.08-1.43h27.26c1.37,0,2,.48,2,1.43a3.47,3.47,0,0,1-.61,1.64l-26,33a1.85,1.85,0,0,0-.2,1.43l30.54,65a3,3,0,0,1,.41,1.23c0,1.09-.75,1.64-2.25,1.64h-25.22a2.92,2.92,0,0,1-2.87-1.85l-20.29-48a1,1,0,0,0-.72-.51.59.59,0,0,0-.72.31l-13.12,16.4a3.14,3.14,0,0,0-.41,1.23v29.93a2.44,2.44,0,0,1-2.46,2.46h-24A2.34,2.34,0,0,1,2803.48,501Z" transform="translate(-213.83 -214.08)"/><path d="M946.7,717.86V628.81h53.76v10.61H958.94v27.91h39.13v10.61H958.94v39.92Z" transform="translate(-213.83 -214.08)"/><path d="M1097.57,628.81l-33.72,47.49v41.56h-12.36V676.3l-33.72-47.49h14.16l25.8,36.76,25.8-36.76Z" transform="translate(-213.83 -214.08)"/><path d="M1117.56,717.86V628.81h12.36V707h41v10.86Z" transform="translate(-213.83 -214.08)"/><path d="M1263,717.86h-15.48l-41.64-41.94v41.94h-12.36V628.81h12.36v40.55l39.84-40.55h15.24l-42.72,43.07Z" transform="translate(-213.83 -214.08)"/><path d="M1283.39,717.86V628.81h55v10.48h-42.84v28H1336v10.61h-40.44v29.44h42.84v10.48Z" transform="translate(-213.83 -214.08)"/><path d="M1374.32,716.09a38.76,38.76,0,0,1-14.1-8.21l4.44-9.6a40.68,40.68,0,0,0,12.9,7.64,44.87,44.87,0,0,0,14.94,2.34q9.48,0,14.64-3.73A12.23,12.23,0,0,0,1412.3,694a9.4,9.4,0,0,0-4.8-8.66q-4.8-2.83-15.36-5.36a90,90,0,0,1-16.56-5.18,24.85,24.85,0,0,1-10.14-7.9c-2.44-3.32-3.66-7.56-3.66-12.69a24.52,24.52,0,0,1,3.9-13.77,26.06,26.06,0,0,1,11.1-9.29,39.2,39.2,0,0,1,16.68-3.34,48.72,48.72,0,0,1,16.74,2.84,32.76,32.76,0,0,1,12.9,8.15l-4.32,9.6a43,43,0,0,0-12.06-7.52,35.2,35.2,0,0,0-13.14-2.46q-9.12,0-14.34,4a13.1,13.1,0,0,0-5.22,11.05,10.36,10.36,0,0,0,4.56,9.16q4.56,3.09,14.64,5.62a116.09,116.09,0,0,1,17.1,5.24,26.21,26.21,0,0,1,10.44,7.45q3.9,4.74,3.9,12.32a23.64,23.64,0,0,1-3.9,13.51,25,25,0,0,1-11.16,9,42.87,42.87,0,0,1-17.22,3.16A56.17,56.17,0,0,1,1374.32,716.09Z" transform="translate(-213.83 -214.08)"/><path d="M1519.85,717.86h-15.48l-41.64-41.94v41.94h-12.36V628.81h12.36v40.55l39.84-40.55h15.24l-42.72,43.07Z" transform="translate(-213.83 -214.08)"/><path d="M1547.88,713.31a36.38,36.38,0,0,1-13.62-15.79q-4.8-10.23-4.8-24.12t4.74-24.32a35.44,35.44,0,0,1,13.62-15.79q8.88-5.49,20.88-5.49t21,5.49a35.44,35.44,0,0,1,13.62,15.79q4.74,10.3,4.74,24.19t-4.74,24.19a35.82,35.82,0,0,1-13.62,15.85q-8.88,5.57-21,5.56T1547.88,713.31Zm40.62-14.14q7.08-9.1,7.08-25.9t-7-25.83q-7-9-19.86-9-12.6,0-19.62,9t-7,25.83q0,16.8,7,25.9t19.62,9.09Q1581.42,708.26,1588.5,699.17Z" transform="translate(-213.83 -214.08)"/><path d="M1706,628.81h9.84v89.05h-11.16l.12-64.42-25.2,50.15h-8.4l-25.32-49.52.12,63.79h-11.16V628.81h10l30.72,61.64Z" transform="translate(-213.83 -214.08)"/><path d="M1817.43,628.81h9.84v89.05h-11.16l.12-64.42L1791,703.59h-8.4l-25.32-49.52.12,63.79h-11.16V628.81h10L1787,690.45Z" transform="translate(-213.83 -214.08)"/><path d="M1865.91,709.65q-8.76-9.23-8.76-27.16V628.81h12.24v54.57q0,12.24,5.58,18.56t16.62,6.32q10.92,0,16.56-6.32t5.64-18.56V628.81H1926v53.68q0,17.81-8.82,27.1t-25.62,9.28Q1874.67,718.87,1865.91,709.65Z" transform="translate(-213.83 -214.08)"/><path d="M2013.7,628.81h11.64v89.05h-9.48l-48.36-67.2v67.2h-11.64V628.81h9.36l48.48,67.32Z" transform="translate(-213.83 -214.08)"/><path d="M2055.68,717.86V628.81h55v10.48H2067.8v28h40.44v10.61H2067.8v29.44h42.84v10.48Z" transform="translate(-213.83 -214.08)"/></svg>